<?xml version="1.0" encoding="UTF-8"?>
<svg width="32px" height="32px" viewBox="0 0 32 32" version="1.1" xmlns="http://www.w3.org/2000/svg" xmlns:xlink="http://www.w3.org/1999/xlink">
    <title>Group 2</title>
    <g id="Symbols" stroke="none" stroke-width="1" fill="none" fill-rule="evenodd">
        <g id="Navigation/Desktop/4.-footer/-Active" transform="translate(-1312.000000, -104.000000)">
            <g id="Group-2" transform="translate(1312.000000, 104.000000)">
                <circle id="Oval" fill="#EFE7D4" cx="16" cy="16" r="16"></circle>
                <g id="Social/Instagram/1.Outline" transform="translate(9.333333, 9.333333)" fill="#8E1717">
                    <path d="M5.45215157,0.00565610175 L6.2090047,0 L6.2090047,0 L7.32347356,0.00054329535 L7.32347356,0.00054329535 L8.24443813,0.0095254299 L8.24443813,0.0095254299 L9.03567923,0.0266255472 L9.03567923,0.0266255472 L9.29849186,0.0357785709 L9.29849186,0.0357785709 L9.41591432,0.0408564265 C11.9255085,0.156418879 13.1816946,1.57594805 13.2917012,3.9166433 L13.3011083,4.1612029 L13.3011083,4.1612029 L13.3195254,4.91751378 L13.3195254,4.91751378 L13.3304846,5.81886574 L13.3304846,5.81886574 L13.3333913,6.39706916 L13.3333913,6.39706916 L13.3311039,7.50791354 L13.3311039,7.50791354 L13.3204876,8.40915869 L13.3204876,8.40915869 L13.3060581,9.02938777 L13.3060581,9.02938777 L13.2917012,9.40974892 L13.2917012,9.40974892 C13.2005846,11.392645 12.2683068,12.4965998 11.0332331,12.9760729 C10.861874,13.0424156 10.6912859,13.096184 10.5100303,13.1397614 L10.3247951,13.18003 C10.2931887,13.1862047 10.2611801,13.1921184 10.2287163,13.1977821 L10.0280474,13.2288527 L10.0280474,13.2288527 L9.81391195,13.2544532 C9.77695929,13.2582936 9.7393396,13.2619281 9.70099994,13.2653677 L9.46189858,13.2837563 L9.46189858,13.2837563 L9.20297587,13.2979987 L9.20297587,13.2979987 L8.92168987,13.3086248 L8.92168987,13.3086248 L8.45226925,13.3189416 L8.45226925,13.3189416 L7.91823292,13.3241005 L7.91823292,13.3241005 L6.02359816,13.3289104 L6.02359816,13.3289104 L5.21549862,13.3333333 L5.21549862,13.3333333 L4.83318466,13.3313699 L4.83318466,13.3313699 L4.46489623,13.3239797 C3.07956056,13.282716 1.99568388,13.0781378 1.12486393,12.2076937 C0.258907488,11.3417372 0.0546721695,10.2759321 0.0118309731,8.85532568 L0.00419351048,8.4926927 L0.00419351048,8.4926927 L0.0015435564,8.1147383 L0.0015435564,8.1147383 L0.00646385006,6.66347391 L0.00646385006,6.66347391 L0.00564508681,6.33276252 L0.00564508681,6.33276252 L-1.77635684e-15,5.39525757 L-1.77635684e-15,5.39525757 L0.000216106256,5.00393754 L0.00489478973,4.62759296 L0.00489478973,4.62759296 L0.0160023799,4.26578348 C0.0709198308,2.96525818 0.29514121,1.94897684 1.12486393,1.11925412 C1.89213195,0.351986107 2.84385542,0.0914149995 3.9228087,0.0408564265 L4.30332135,0.0271922381 L4.30332135,0.0271922381 L4.75838043,0.0161715813 L4.75838043,0.0161715813 L5.45215157,0.00565610175 L5.45215157,0.00565610175 Z M12.0932963,3.96997982 C12.0018519,1.95018714 10.9710579,1.38098717 9.43735479,1.22845781 L9.20358206,1.2085742 L9.20358206,1.2085742 L8.96259302,1.1941652 L8.96259302,1.1941652 L8.71471501,1.18445538 L8.71471501,1.18445538 L8.46027535,1.1786693 L8.46027535,1.1786693 L7.93302042,1.17576656 L7.93302042,1.17576656 L6.81417335,1.18292647 L6.81417335,1.18292647 L5.46247116,1.18534344 L5.46247116,1.18534344 L4.79677259,1.19195089 L4.79677259,1.19195089 L4.20865753,1.20735074 L4.20865753,1.20735074 L3.9472546,1.21648215 L3.9472546,1.21648215 C2.1291133,1.30960246 1.49369242,2.11773454 1.27824082,3.39545959 L1.24609004,3.61271976 C1.23658212,3.68656113 1.22823962,3.76180977 1.22093175,3.83842362 L1.20198121,4.07231866 L1.20198121,4.07231866 L1.18845372,4.3141524 L1.18845372,4.3141524 L1.17956454,4.56367236 L1.17956454,4.56367236 L1.17452895,4.82062604 L1.17452895,4.82062604 L1.17248447,5.21944247 L1.17248447,5.21944247 L1.18129635,6.50431696 L1.18129635,6.50431696 L1.17976041,7.08405544 L1.17976041,7.08405544 L1.1702939,8.07555097 L1.1702939,8.07555097 L1.16988715,8.44015529 L1.16988715,8.44015529 L1.1744934,8.78697957 C1.20048528,9.91379912 1.34426771,10.7498647 1.94824641,11.3509759 C2.38889949,11.7928338 2.91805411,11.9830664 3.75285444,12.0646366 L4.01268106,12.0859908 L4.01268106,12.0859908 L4.29214928,12.101683 L4.29214928,12.101683 L4.59256198,12.112571 L4.59256198,12.112571 L4.91522201,12.1195126 L4.91522201,12.1195126 L5.44377583,12.1244019 L5.44377583,12.1244019 L8.02792537,12.1262568 L8.39059753,12.1237037 L8.39059753,12.1237037 L8.72844147,12.1177338 C8.78275788,12.11639 8.83609836,12.1148556 8.88849219,12.1131068 L9.19172976,12.0998468 C10.2149424,12.0430795 10.8465177,11.8704889 11.3576969,11.3593097 C11.8649884,10.8496302 12.0410941,10.2303933 12.1015933,9.19263642 L12.1153888,8.89900316 L12.1153888,8.89900316 L12.1244235,8.58322408 L12.1244235,8.58322408 L12.131175,8.06498534 L12.131175,8.06498534 L12.1326813,7.48908417 L12.1326813,7.48908417 L12.1305018,5.57574114 L12.1305018,5.57574114 L12.1204306,4.69909964 L12.1204306,4.69909964 L12.1010775,4.1449722 L12.1010775,4.1449722 L12.0932963,3.96997982 L12.0932963,3.96997982 Z M6.66908372,3.2421586 C8.55808535,3.2421586 10.090399,4.77280551 10.090399,6.66347391 C10.090399,8.55247554 8.55975211,10.0847892 6.66908372,10.0847892 C4.78008209,10.0847892 3.24776841,8.5541423 3.24776841,6.66347391 C3.24776841,4.77447228 4.77841532,3.2421586 6.66908372,3.2421586 Z M6.66908372,4.44278581 C5.44234384,4.44278581 4.44839562,5.43673402 4.44839562,6.66347391 C4.44839562,7.89021379 5.44178825,8.884162 6.66908372,8.884162 C7.89637919,8.884162 8.8903274,7.89021379 8.88977228,6.66347391 C8.88977228,5.43673402 7.8958236,4.44278581 6.66908372,4.44278581 Z M10.2259627,2.30765838 C10.66751,2.30765838 11.0254548,2.66560322 11.0254548,3.10715054 C11.0254548,3.54869787 10.66751,3.9066427 10.2259627,3.9066427 C9.78441534,3.9066427 9.42647051,3.54869787 9.42647051,3.10715054 C9.42647051,2.66560322 9.78441534,2.30765838 10.2259627,2.30765838 Z" id="instagram"></path>
                </g>
            </g>
        </g>
    </g>
</svg>