<svg width="279" height="65" viewBox="0 0 279 65" fill="none" xmlns="http://www.w3.org/2000/svg">
<path d="M11.9536 53.7809C11.9536 54.5695 12.06 55.2759 12.2727 55.8986C12.4854 56.5213 12.7775 57.0489 13.1491 57.4815C13.5206 57.9141 13.9617 58.2446 14.4722 58.473C14.9813 58.7014 15.5344 58.8148 16.1286 58.8148C16.4817 58.8148 16.8221 58.7382 17.1511 58.5851C17.4801 58.4319 17.785 58.2333 18.0672 57.9893C18.3494 57.7453 18.6018 57.4688 18.8245 57.1595C19.0471 56.8503 19.23 56.5383 19.3747 56.2205L20.0852 56.7283C19.8767 57.1042 19.6328 57.4673 19.3492 57.8163C19.067 58.1652 18.7394 58.473 18.3664 58.7382C17.9948 59.0035 17.5737 59.2177 17.1057 59.3794C16.6377 59.5396 16.113 59.6205 15.533 59.6205C14.953 59.6205 14.4538 59.5496 13.9603 59.4077C13.4682 59.2659 13.0144 59.0673 12.6017 58.812C12.189 58.5567 11.8189 58.2503 11.4927 57.89C11.1665 57.5297 10.8914 57.134 10.6659 56.7014C10.4419 56.2688 10.2689 55.8064 10.1483 55.3113C10.0278 54.8177 9.9668 54.3071 9.9668 53.7809C9.9668 53.2546 10.0278 52.7426 10.1512 52.2461C10.2745 51.7497 10.4504 51.2816 10.6801 50.8447C10.9099 50.4079 11.1906 50.0064 11.5239 49.6405C11.8572 49.276 12.233 48.9625 12.6513 48.7015C13.0697 48.4405 13.5277 48.2377 14.0241 48.093C14.5218 47.9483 15.0536 47.876 15.6181 47.876C16.1825 47.876 16.6476 47.9568 17.1 48.1171C17.5524 48.2774 17.9651 48.4916 18.3395 48.7568C18.7138 49.0221 19.0457 49.3299 19.3364 49.6788C19.6257 50.0277 19.8753 50.3908 20.0823 50.7667L19.3506 51.3142C18.9251 50.4064 18.4515 49.7412 17.9296 49.3171C17.4077 48.893 16.8093 48.6802 16.1328 48.6802C15.5486 48.6802 15.0026 48.7979 14.4949 49.0348C13.9872 49.2717 13.5447 49.6093 13.1689 50.049C12.7931 50.4887 12.4953 51.0235 12.2769 51.6518C12.06 52.2802 11.9508 52.9894 11.9508 53.778L11.9536 53.7809Z" fill="white"/>
<path d="M26.3576 59.5395C25.7634 59.5395 25.2132 59.4247 24.7083 59.1935C24.2035 58.9622 23.7681 58.6488 23.4037 58.2516C23.0392 57.8545 22.7541 57.3892 22.5485 56.8545C22.3429 56.3197 22.2408 55.7495 22.2408 55.1424C22.2408 54.5042 22.3429 53.9042 22.5485 53.3425C22.7541 52.7808 23.0392 52.2928 23.4037 51.8772C23.7681 51.4616 24.2035 51.1326 24.7083 50.89C25.2132 50.6489 25.7634 50.5283 26.3576 50.5283C26.9518 50.5283 27.4992 50.639 27.9998 50.8588C28.5004 51.0787 28.933 51.3808 29.3002 51.7652C29.6675 52.1496 29.954 52.6006 30.1596 53.1184C30.3653 53.6361 30.4674 54.1907 30.4674 54.7822C30.4674 55.4375 30.3653 56.0531 30.1596 56.6304C29.954 57.2077 29.6675 57.7126 29.3002 58.1452C28.933 58.5779 28.499 58.9183 27.9998 59.1679C27.4992 59.4176 26.9532 59.5424 26.3576 59.5424V59.5395ZM26.6483 58.9041C26.9532 58.9041 27.2312 58.8162 27.485 58.6417C27.7389 58.4672 27.9587 58.2332 28.1445 57.941C28.3302 57.6488 28.4749 57.3055 28.5756 56.914C28.6777 56.5226 28.7273 56.1084 28.7273 55.6744C28.7273 55.046 28.6791 54.4588 28.5827 53.9141C28.4862 53.3694 28.3288 52.8928 28.1119 52.4843C27.8949 52.0758 27.6113 51.7553 27.2638 51.5212C26.9164 51.2872 26.4881 51.1709 25.9804 51.1709C25.7195 51.1709 25.4685 51.2546 25.2274 51.4205C24.9863 51.5865 24.7722 51.8148 24.5864 52.1056C24.4006 52.395 24.2517 52.734 24.1411 53.1198C24.0305 53.507 23.9737 53.9169 23.9737 54.3524C23.9737 54.9807 24.0347 55.5708 24.1553 56.124C24.2758 56.6772 24.4502 57.1594 24.6771 57.5694C24.904 57.9807 25.1848 58.3055 25.5181 58.5438C25.8513 58.7835 26.2286 58.9027 26.6483 58.9027V58.9041Z" fill="white"/>
<path d="M37.2687 50.7036V51.4284H35.1883V59.3546H33.6369V51.4284H32.006V50.7036H33.6369V49.688C33.6369 49.2157 33.7135 48.7717 33.8652 48.3547C34.017 47.9391 34.224 47.576 34.4849 47.2668C34.7459 46.9576 35.0522 46.715 35.4053 46.5377C35.7584 46.3604 36.1342 46.2725 36.5356 46.2725C36.8787 46.2725 37.1836 46.3108 37.4517 46.3888C37.7197 46.4668 37.9452 46.5717 38.1295 46.7037C38.3125 46.8356 38.4529 46.9916 38.5493 47.1703C38.6457 47.3505 38.694 47.5419 38.694 47.7462C38.694 47.8753 38.6727 47.9888 38.6287 48.088C38.5848 48.1873 38.5266 48.2724 38.4543 48.3419C38.382 48.4114 38.2969 48.4653 38.2004 48.5036C38.104 48.5419 38.0019 48.5604 37.8955 48.5604C37.7069 48.5604 37.5637 48.5207 37.4644 48.4398C37.3652 48.359 37.2886 48.2568 37.2361 48.1334C37.1836 48.01 37.1411 47.8767 37.1099 47.7349C37.0787 47.593 37.0333 47.4597 36.9752 47.3363C36.917 47.2129 36.8334 47.1107 36.7256 47.0299C36.6178 46.949 36.4604 46.9093 36.2576 46.9093C36.103 46.9093 35.9598 46.959 35.8265 47.0583C35.6932 47.1576 35.5797 47.2881 35.4861 47.4483C35.3925 47.6086 35.3188 47.7944 35.2649 48.0044C35.211 48.2143 35.1855 48.4285 35.1855 48.6483V50.7022H37.2659L37.2687 50.7036Z" fill="white"/>
<path d="M43.8517 50.7036V51.4284H41.7713V59.3546H40.2198V51.4284H38.589V50.7036H40.2198V49.688C40.2198 49.2157 40.2964 48.7717 40.4482 48.3547C40.5999 47.9391 40.807 47.576 41.0679 47.2668C41.3288 46.9576 41.6351 46.715 41.9883 46.5377C42.3414 46.3604 42.7172 46.2725 43.1185 46.2725C43.4617 46.2725 43.7666 46.3108 44.0346 46.3888C44.3026 46.4668 44.5281 46.5717 44.7125 46.7037C44.8954 46.8356 45.0358 46.9916 45.1323 47.1703C45.2287 47.3505 45.2769 47.5419 45.2769 47.7462C45.2769 47.8753 45.2556 47.9888 45.2117 48.088C45.1677 48.1873 45.1096 48.2724 45.0372 48.3419C44.9649 48.4114 44.8798 48.4653 44.7834 48.5036C44.687 48.5419 44.5849 48.5604 44.4785 48.5604C44.2899 48.5604 44.1467 48.5207 44.0474 48.4398C43.9481 48.359 43.8715 48.2568 43.8191 48.1334C43.7666 48.01 43.724 47.8767 43.6928 47.7349C43.6617 47.593 43.6163 47.4597 43.5581 47.3363C43.5 47.2129 43.4163 47.1107 43.3085 47.0299C43.2008 46.949 43.0433 46.9093 42.8406 46.9093C42.686 46.9093 42.5427 46.959 42.4094 47.0583C42.2761 47.1576 42.1627 47.2881 42.0691 47.4483C41.9755 47.6086 41.9017 47.7944 41.8479 48.0044C41.794 48.2143 41.7684 48.4285 41.7684 48.6483V50.7022H43.8488L43.8517 50.7036Z" fill="white"/>
<path d="M49.3129 59.539C48.7868 59.539 48.2919 59.4284 47.831 59.2085C47.3701 58.9887 46.9659 58.6894 46.6199 58.3107C46.2739 57.9319 46.0016 57.4894 45.8016 56.9816C45.6017 56.4738 45.501 55.9306 45.501 55.3504C45.501 54.6582 45.5932 54.0157 45.7761 53.4256C45.959 52.8356 46.2186 52.3249 46.5518 51.8951C46.8851 51.4654 47.2878 51.1306 47.7586 50.8881C48.2295 50.6469 48.7528 50.5264 49.3271 50.5264C49.839 50.5264 50.3084 50.6257 50.7325 50.8242C51.1579 51.0228 51.5224 51.2909 51.8273 51.6256C52.1322 51.9618 52.3676 52.349 52.5377 52.7902C52.7065 53.2299 52.7916 53.6923 52.7916 54.176H46.9858C46.9858 54.7561 47.0538 55.2937 47.1886 55.7901C47.3233 56.2866 47.5119 56.7149 47.7544 57.0752C47.9955 57.4355 48.2862 57.7163 48.6237 57.9206C48.9612 58.1248 49.3314 58.227 49.7327 58.227C50.0702 58.227 50.395 58.166 50.7041 58.0454C51.0133 57.9249 51.294 57.766 51.5451 57.5702C51.7961 57.3745 52.0102 57.149 52.1861 56.8937C52.3619 56.6383 52.4867 56.3774 52.559 56.1079L53.0015 56.3249C52.8909 56.7703 52.7108 57.1873 52.4612 57.5773C52.2116 57.9674 51.9223 58.3064 51.5919 58.5958C51.2614 58.8851 50.8984 59.1149 50.5041 59.2837C50.1099 59.4525 49.7128 59.5376 49.3115 59.5376L49.3129 59.539ZM50.8558 53.4824C50.8558 53.1547 50.8034 52.8497 50.6999 52.5675C50.5963 52.2852 50.4531 52.0412 50.2716 51.8342C50.0901 51.6271 49.8773 51.4654 49.6334 51.3462C49.3895 51.2285 49.1271 51.1689 48.8464 51.1689C48.6138 51.1689 48.3911 51.2285 48.1756 51.3462C47.96 51.4639 47.77 51.6256 47.6027 51.8299C47.4353 52.0341 47.2978 52.2767 47.19 52.559C47.0808 52.8412 47.0141 53.1462 46.9914 53.4738L50.8544 53.4824H50.8558Z" fill="white"/>
<path d="M58.6429 59.539C58.1167 59.539 57.6218 59.4284 57.1609 59.2085C56.7 58.9887 56.2959 58.6894 55.9498 58.3107C55.6038 57.9319 55.3315 57.4894 55.1316 56.9816C54.9316 56.4738 54.8309 55.9306 54.8309 55.3504C54.8309 54.6582 54.9231 54.0157 55.1061 53.4256C55.289 52.8356 55.5485 52.3249 55.8818 51.8951C56.215 51.4654 56.6178 51.1306 57.0886 50.8881C57.5594 50.6469 58.0827 50.5264 58.6571 50.5264C59.169 50.5264 59.6384 50.6257 60.0624 50.8242C60.4879 51.0228 60.8523 51.2909 61.1572 51.6256C61.4621 51.9618 61.6975 52.349 61.8677 52.7902C62.0365 53.2299 62.1216 53.6923 62.1216 54.176H56.3157C56.3157 54.7561 56.3838 55.2937 56.5185 55.7901C56.6532 56.2866 56.8418 56.7149 57.0843 57.0752C57.3254 57.4355 57.6161 57.7163 57.9537 57.9206C58.2912 58.1248 58.6613 58.227 59.0626 58.227C59.4002 58.227 59.7249 58.166 60.0341 58.0454C60.3432 57.9249 60.624 57.766 60.875 57.5702C61.126 57.3745 61.3402 57.149 61.516 56.8937C61.6919 56.6383 61.8167 56.3774 61.889 56.1079L62.3314 56.3249C62.2208 56.7703 62.0407 57.1873 61.7911 57.5773C61.5415 57.9674 61.2522 58.3064 60.9218 58.5958C60.5914 58.8851 60.2283 59.1149 59.8341 59.2837C59.4399 59.4525 59.0428 59.5376 58.6415 59.5376L58.6429 59.539ZM60.1872 53.4824C60.1872 53.1547 60.1347 52.8497 60.0312 52.5675C59.9277 52.2852 59.7845 52.0412 59.6029 51.8342C59.4214 51.6271 59.2087 51.4654 58.9648 51.3462C58.7209 51.2285 58.4585 51.1689 58.1777 51.1689C57.9451 51.1689 57.7225 51.2285 57.5069 51.3462C57.2914 51.4639 57.1014 51.6256 56.934 51.8299C56.7667 52.0341 56.6291 52.2767 56.5213 52.559C56.4136 52.8412 56.3455 53.1462 56.3228 53.4738L60.1858 53.4824H60.1872Z" fill="white"/>
<path d="M70.324 48.1338V63.1634H69.6135V48.1338H70.324Z" fill="white"/>
<path d="M78.3322 48.1337H82.398C82.9341 48.1337 83.4276 48.2004 83.8771 48.3352C84.3267 48.4699 84.7124 48.6571 85.0329 48.8983C85.3548 49.1394 85.6044 49.4302 85.7831 49.7678C85.9618 50.1053 86.0511 50.4798 86.0511 50.8869C86.0511 51.1933 86.0227 51.467 85.9646 51.7082C85.9065 51.9493 85.8072 52.1748 85.6682 52.3805C85.5278 52.5876 85.3392 52.7833 85.1024 52.9691C84.8655 53.1549 84.5677 53.3408 84.2104 53.5294V53.562C84.5677 53.6259 84.8925 53.7351 85.1846 53.8883C85.4768 54.0415 85.7249 54.2358 85.9306 54.4727C86.1362 54.7095 86.2936 54.9819 86.4056 55.2897C86.5163 55.5989 86.573 55.9407 86.573 56.3166C86.573 56.7407 86.4893 57.1379 86.3234 57.5081C86.1575 57.8783 85.9206 58.2003 85.6129 58.474C85.3066 58.7478 84.935 58.9634 84.4997 59.118C84.0643 59.2726 83.5793 59.352 83.0433 59.352H78.3322V48.1323V48.1337ZM80.0283 53.1847H82.1881C82.5256 53.1847 82.8277 53.1308 83.0943 53.0245C83.3609 52.9181 83.5836 52.7677 83.7651 52.5777C83.9466 52.3876 84.0842 52.1635 84.1778 51.9053C84.2714 51.6472 84.3196 51.3663 84.3196 51.0599C84.3196 50.7323 84.2643 50.4344 84.1522 50.1663C84.0416 49.8983 83.8672 49.6685 83.6304 49.477C83.3935 49.2869 83.0943 49.1394 82.7313 49.0387C82.3696 48.9366 81.9343 48.8855 81.4266 48.8855H80.0283V53.1862V53.1847ZM80.0283 58.5322H81.8619C82.3555 58.5322 82.7823 58.4797 83.1454 58.3747C83.5084 58.2698 83.8076 58.1237 84.0445 57.935C84.2813 57.7478 84.4557 57.5209 84.5692 57.2542C84.6826 56.9889 84.7393 56.6967 84.7393 56.3804C84.7393 56.0258 84.6883 55.6953 84.5876 55.3904C84.4855 55.084 84.3196 54.8202 84.087 54.5975C83.8544 54.3748 83.5524 54.1989 83.1808 54.0698C82.8093 53.9408 82.3526 53.8769 81.8109 53.8769H80.0283V58.5322Z" fill="white"/>
<path d="M88.5825 50.7042H90.1197V52.3396C90.27 52.0985 90.4317 51.8673 90.6047 51.6475C90.7792 51.4276 90.9607 51.2347 91.1479 51.0673C91.3365 50.9014 91.5308 50.7695 91.7307 50.673C91.9307 50.5765 92.1349 50.5283 92.3434 50.5283C92.5121 50.5283 92.6695 50.5567 92.8142 50.6134C92.9588 50.6702 93.0865 50.7453 93.1942 50.839C93.302 50.9326 93.3885 51.0432 93.4509 51.1694C93.5133 51.2957 93.5459 51.429 93.5459 51.568C93.5459 51.8475 93.4665 52.0574 93.3105 52.2006C93.1531 52.3425 92.9347 52.4134 92.6539 52.4134C92.4795 52.4134 92.3405 52.3935 92.237 52.3524C92.1335 52.3127 92.0385 52.2659 91.9548 52.2148C91.8697 52.1638 91.7846 52.1184 91.6981 52.0772C91.6116 52.0375 91.5024 52.0162 91.3719 52.0162C91.2698 52.0162 91.1677 52.0503 91.0642 52.117C90.9607 52.1836 90.8557 52.2772 90.7522 52.3992C90.6487 52.5198 90.5438 52.6616 90.4374 52.8262C90.331 52.9893 90.2247 53.168 90.1183 53.3623V59.3552H88.5811V50.7042H88.5825Z" fill="white"/>
<path d="M98.7321 59.539C98.2059 59.539 97.711 59.4284 97.2501 59.2085C96.7878 58.9887 96.3851 58.6894 96.039 58.3107C95.693 57.9319 95.4207 57.4894 95.2193 56.9816C95.0194 56.4738 94.9187 55.9306 94.9187 55.3504C94.9187 54.6582 95.0109 54.0157 95.1938 53.4256C95.3768 52.8356 95.6363 52.3249 95.9695 51.8951C96.3028 51.4654 96.7055 51.1306 97.1764 50.8881C97.6472 50.6455 98.1705 50.5264 98.7448 50.5264C99.2568 50.5264 99.7262 50.6257 100.15 50.8242C100.576 51.0228 100.94 51.2909 101.245 51.6256C101.55 51.9618 101.785 52.349 101.955 52.7902C102.124 53.2299 102.209 53.6923 102.209 54.176H96.4035C96.4035 54.7561 96.4716 55.2937 96.6063 55.7901C96.741 56.2866 96.9296 56.7149 97.1721 57.0752C97.4132 57.4355 97.7039 57.7163 98.0414 57.9206C98.3789 58.1248 98.7491 58.227 99.1504 58.227C99.4879 58.227 99.8127 58.166 100.122 58.0454C100.431 57.9249 100.712 57.766 100.963 57.5702C101.214 57.3745 101.428 57.149 101.604 56.8937C101.78 56.6383 101.904 56.3774 101.977 56.1079L102.419 56.3249C102.309 56.7703 102.128 57.1873 101.879 57.5773C101.629 57.9674 101.34 58.3064 101.01 58.5958C100.679 58.8851 100.316 59.1149 99.9219 59.2837C99.5276 59.4525 99.1306 59.5376 98.7292 59.5376L98.7321 59.539ZM100.276 53.4824C100.276 53.1547 100.224 52.8497 100.12 52.5675C100.017 52.2852 99.8737 52.0412 99.6921 51.8342C99.5106 51.6271 99.2979 51.4654 99.054 51.3462C98.8101 51.2285 98.5477 51.1689 98.2683 51.1689C98.0358 51.1689 97.8131 51.2285 97.5976 51.3462C97.382 51.4639 97.192 51.6256 97.0246 51.8299C96.8573 52.0341 96.7197 52.2767 96.612 52.559C96.5042 52.8412 96.4375 53.1462 96.4134 53.4738L100.276 53.4824Z" fill="white"/>
<path d="M110.345 59.3546H108.794V58.1702C108.609 58.3263 108.431 58.4837 108.253 58.6454C108.078 58.8057 107.886 58.9546 107.68 59.088C107.475 59.2227 107.248 59.3305 107 59.4142C106.75 59.4979 106.462 59.539 106.133 59.539C105.828 59.539 105.553 59.4837 105.307 59.3745C105.06 59.2638 104.85 59.1121 104.675 58.9192C104.501 58.7263 104.369 58.4979 104.277 58.2341C104.185 57.9717 104.139 57.6866 104.139 57.3802C104.139 57.01 104.206 56.6752 104.338 56.3774C104.471 56.0795 104.651 55.8128 104.881 55.5759C105.111 55.3405 105.379 55.1306 105.685 54.9476C105.991 54.7646 106.316 54.6015 106.659 54.4568C107.003 54.3121 107.356 54.1831 107.722 54.0696C108.086 53.9561 108.443 53.8526 108.791 53.7547V53.2157C108.791 52.8242 108.755 52.4923 108.686 52.2214C108.616 51.9505 108.516 51.732 108.385 51.5647C108.255 51.3987 108.096 51.2781 107.91 51.2058C107.724 51.1335 107.515 51.0966 107.283 51.0966C107.022 51.0966 106.81 51.1349 106.645 51.21C106.481 51.2852 106.352 51.3845 106.258 51.5079C106.164 51.6313 106.099 51.7717 106.067 51.9306C106.034 52.0895 106.016 52.2483 106.016 52.41C106.016 52.5604 106.004 52.7051 105.983 52.8455C105.962 52.9859 105.922 53.1079 105.864 53.2114C105.806 53.315 105.728 53.4001 105.628 53.4653C105.529 53.5306 105.403 53.5618 105.248 53.5618C105.128 53.5618 105.017 53.5363 104.918 53.4852C104.819 53.4341 104.734 53.3632 104.661 53.2724C104.589 53.1817 104.534 53.0739 104.494 52.9505C104.454 52.827 104.436 52.6923 104.436 52.5476C104.436 52.2625 104.521 51.9973 104.69 51.7505C104.858 51.5037 105.085 51.2909 105.37 51.1108C105.655 50.9306 105.989 50.7888 106.37 50.6838C106.752 50.5789 107.153 50.5264 107.573 50.5264C108.085 50.5264 108.517 50.5817 108.87 50.6909C109.223 50.8015 109.508 50.9562 109.725 51.1547C109.942 51.3533 110.1 51.5944 110.196 51.8795C110.293 52.1646 110.341 52.4781 110.341 52.8214V59.3532L110.345 59.3546ZM108.795 54.3121C108.572 54.393 108.343 54.4838 108.103 54.5859C107.863 54.688 107.629 54.8015 107.4 54.9277C107.17 55.054 106.952 55.1901 106.745 55.3391C106.536 55.4866 106.355 55.644 106.197 55.81C106.04 55.9759 105.915 56.1532 105.824 56.3419C105.732 56.5291 105.687 56.7263 105.687 56.9305C105.687 57.1348 105.722 57.3405 105.792 57.5305C105.861 57.7206 105.955 57.888 106.071 58.0298C106.187 58.1717 106.32 58.2851 106.474 58.3674C106.625 58.4511 106.784 58.4922 106.949 58.4922C107.123 58.4922 107.288 58.4667 107.445 58.4156C107.602 58.3646 107.754 58.2965 107.902 58.21C108.049 58.1234 108.197 58.0227 108.344 57.9078C108.492 57.7929 108.642 57.6695 108.797 57.5419V54.3121H108.795Z" fill="white"/>
<path d="M114.697 54.1916L118.604 50.7037H119.611L116.125 53.8455L120.438 59.3546H118.402L114.697 54.6185V59.3546H113.153V46.7647L114.255 46.2739H114.697V54.1916Z" fill="white"/>
<path d="M126.115 50.7036V51.4284H124.034V59.3546H122.483V51.4284H120.852V50.7036H122.483V49.688C122.483 49.2157 122.559 48.7717 122.711 48.3547C122.863 47.9391 123.07 47.576 123.331 47.2668C123.592 46.9576 123.898 46.715 124.251 46.5377C124.604 46.3604 124.98 46.2725 125.382 46.2725C125.725 46.2725 126.03 46.3108 126.298 46.3888C126.566 46.4668 126.791 46.5717 126.976 46.7037C127.158 46.8356 127.299 46.9916 127.395 47.1703C127.492 47.3505 127.54 47.5419 127.54 47.7462C127.54 47.8753 127.519 47.9888 127.475 48.088C127.431 48.1873 127.373 48.2724 127.3 48.3419C127.228 48.4114 127.143 48.4653 127.046 48.5036C126.95 48.5419 126.848 48.5604 126.742 48.5604C126.553 48.5604 126.41 48.5207 126.31 48.4398C126.211 48.359 126.135 48.2568 126.082 48.1334C126.028 48.01 125.987 47.8767 125.956 47.7349C125.925 47.593 125.879 47.4597 125.821 47.3363C125.763 47.2129 125.679 47.1107 125.572 47.0299C125.464 46.949 125.306 46.9093 125.104 46.9093C124.949 46.9093 124.806 46.959 124.673 47.0583C124.539 47.1576 124.426 47.2881 124.332 47.4483C124.237 47.6086 124.165 47.7944 124.111 48.0044C124.057 48.2143 124.032 48.4285 124.032 48.6483V50.7022H126.112L126.115 50.7036Z" fill="white"/>
<path d="M133.858 59.3546H132.306V58.1702C132.123 58.3263 131.943 58.4837 131.766 58.6454C131.59 58.8057 131.399 58.9546 131.193 59.088C130.987 59.2227 130.761 59.3305 130.512 59.4142C130.263 59.4979 129.975 59.539 129.646 59.539C129.341 59.539 129.066 59.4837 128.819 59.3745C128.572 59.2638 128.363 59.1121 128.188 58.9192C128.014 58.7263 127.882 58.4979 127.79 58.2341C127.697 57.9717 127.652 57.6866 127.652 57.3802C127.652 57.01 127.719 56.6752 127.851 56.3774C127.984 56.0795 128.165 55.8128 128.394 55.5759C128.623 55.3405 128.891 55.1306 129.198 54.9476C129.504 54.7646 129.829 54.6015 130.172 54.4568C130.515 54.3121 130.87 54.1831 131.234 54.0696C131.599 53.9561 131.955 53.8526 132.304 53.7547V53.2157C132.304 52.8242 132.268 52.4923 132.199 52.2214C132.129 51.9505 132.028 51.732 131.898 51.5647C131.767 51.3987 131.609 51.2781 131.423 51.2058C131.237 51.1335 131.027 51.0966 130.796 51.0966C130.535 51.0966 130.322 51.1349 130.158 51.21C129.993 51.2852 129.864 51.3845 129.771 51.5079C129.676 51.6313 129.612 51.7717 129.578 51.9306C129.544 52.0895 129.527 52.2483 129.527 52.41C129.527 52.5604 129.515 52.7051 129.494 52.8455C129.473 52.9859 129.433 53.1079 129.375 53.2114C129.317 53.315 129.239 53.4001 129.14 53.4653C129.04 53.5306 128.914 53.5618 128.76 53.5618C128.639 53.5618 128.528 53.5363 128.431 53.4852C128.331 53.4341 128.246 53.3632 128.172 53.2724C128.1 53.1817 128.045 53.0739 128.005 52.9505C127.965 52.827 127.947 52.6923 127.947 52.5476C127.947 52.2625 128.032 51.9973 128.201 51.7505C128.37 51.5037 128.597 51.2909 128.882 51.1108C129.167 50.9306 129.5 50.7888 129.881 50.6838C130.263 50.5789 130.664 50.5264 131.084 50.5264C131.596 50.5264 132.028 50.5817 132.382 50.6909C132.735 50.8015 133.02 50.9562 133.237 51.1547C133.454 51.3533 133.611 51.5944 133.707 51.8795C133.804 52.1646 133.852 52.4781 133.852 52.8214V59.3532L133.858 59.3546ZM132.308 54.3121C132.085 54.393 131.855 54.4838 131.616 54.5859C131.376 54.688 131.142 54.8015 130.912 54.9277C130.683 55.054 130.464 55.1901 130.256 55.3391C130.047 55.4866 129.866 55.644 129.708 55.81C129.551 55.9759 129.426 56.1532 129.335 56.3419C129.243 56.5291 129.198 56.7263 129.198 56.9305C129.198 57.1348 129.233 57.3405 129.303 57.5305C129.372 57.7206 129.466 57.888 129.582 58.0298C129.698 58.1717 129.832 58.2851 129.985 58.3674C130.137 58.4511 130.295 58.4922 130.46 58.4922C130.634 58.4922 130.799 58.4667 130.956 58.4156C131.114 58.3646 131.265 58.2965 131.413 58.21C131.56 58.1234 131.708 58.0227 131.855 57.9078C132.003 57.7929 132.153 57.6695 132.308 57.5419V54.3121Z" fill="white"/>
<path d="M139.152 58.9433C139.364 58.9433 139.56 58.9064 139.739 58.8341C139.917 58.7617 140.071 58.6667 140.2 58.5475C140.327 58.4298 140.428 58.2922 140.5 58.1362C140.573 57.9802 140.609 57.8227 140.609 57.661C140.609 57.3986 140.55 57.1688 140.432 56.9731C140.313 56.7773 140.157 56.6 139.961 56.4412C139.766 56.2823 139.542 56.1391 139.291 56.01C139.04 55.8809 138.784 55.7476 138.526 55.6114C138.268 55.4752 138.013 55.3263 137.762 55.1689C137.511 55.0114 137.287 54.8284 137.091 54.6214C136.895 54.4143 136.738 54.176 136.62 53.905C136.503 53.6341 136.443 53.3136 136.443 52.9419C136.443 52.593 136.51 52.271 136.643 51.976C136.776 51.681 136.959 51.4256 137.193 51.2115C137.427 50.9973 137.708 50.8285 138.034 50.7079C138.36 50.5874 138.716 50.5264 139.103 50.5264C139.36 50.5264 139.601 50.5462 139.828 50.5874C140.055 50.6271 140.276 50.7051 140.492 50.8214C140.707 50.9363 140.921 51.0994 141.137 51.3093C141.353 51.5193 141.575 51.793 141.808 52.1306L141.242 52.6937C140.947 52.1576 140.617 51.7561 140.252 51.4937C139.888 51.2313 139.498 51.0994 139.082 51.0994C138.865 51.0994 138.664 51.1306 138.481 51.1916C138.296 51.254 138.14 51.3363 138.01 51.4413C137.88 51.5462 137.779 51.6682 137.705 51.8072C137.631 51.9462 137.596 52.0951 137.596 52.2498C137.596 52.5079 137.661 52.7334 137.792 52.9263C137.922 53.1192 138.094 53.2937 138.306 53.4497C138.519 53.6058 138.76 53.749 139.031 53.8809C139.302 54.0128 139.58 54.1462 139.865 54.2838C140.15 54.4199 140.428 54.5675 140.699 54.7221C140.97 54.8781 141.211 55.0596 141.423 55.2653C141.636 55.4724 141.808 55.7107 141.938 55.9816C142.069 56.2525 142.134 56.5688 142.134 56.9277C142.134 57.2866 142.073 57.6355 141.95 57.9546C141.826 58.2738 141.642 58.5504 141.395 58.7844C141.148 59.0185 140.838 59.2014 140.463 59.3362C140.089 59.4695 139.652 59.5376 139.154 59.5376C138.928 59.5376 138.695 59.5177 138.455 59.4766C138.216 59.4369 137.975 59.3589 137.731 59.2426C137.487 59.1277 137.243 58.9646 136.999 58.7546C136.755 58.5447 136.517 58.2709 136.286 57.9334L136.917 57.2979C137.105 57.5929 137.287 57.844 137.46 58.0511C137.634 58.2582 137.809 58.427 137.985 58.5589C138.16 58.6908 138.345 58.7873 138.535 58.8482C138.725 58.9107 138.932 58.9404 139.154 58.9404L139.152 58.9433Z" fill="white"/>
<path d="M148.577 58.2509C148.368 58.648 148.093 58.9629 147.75 59.1927C147.407 59.4239 146.984 59.5388 146.482 59.5388C146.221 59.5388 145.996 59.4906 145.804 59.3941C145.613 59.2977 145.455 59.1601 145.329 58.9828C145.203 58.8055 145.111 58.5941 145.05 58.3459C144.989 58.0991 144.959 57.8253 144.959 57.5246V51.4268H143.61V50.9999C144.046 50.9999 144.403 50.912 144.684 50.7375C144.965 50.563 145.193 50.3262 145.372 50.0283C145.55 49.7304 145.691 49.3857 145.791 48.9928C145.893 48.6014 145.983 48.1843 146.059 47.7446H146.502V50.7006H148.249V51.4254H146.502V57.5232C146.502 57.6523 146.523 57.7729 146.567 57.8863C146.611 57.9984 146.669 58.0963 146.744 58.18C146.819 58.2636 146.909 58.3289 147.012 58.3771C147.116 58.4253 147.226 58.4495 147.343 58.4495C147.517 58.4495 147.675 58.4026 147.818 58.309C147.96 58.2154 148.084 58.0991 148.191 57.9587L148.575 58.248L148.577 58.2509Z" fill="white"/>
<path d="M156.054 48.1338V63.1634H155.344V48.1338H156.054Z" fill="white"/>
<path d="M164.061 48.1338H167.258C167.784 48.1338 168.279 48.2047 168.74 48.3466C169.201 48.4884 169.602 48.6969 169.942 48.9707C170.283 49.2444 170.552 49.5806 170.751 49.9777C170.949 50.3749 171.047 50.8288 171.047 51.3394C171.047 51.8501 170.952 52.294 170.76 52.6727C170.569 53.0515 170.318 53.3649 170.007 53.6146C169.695 53.8642 169.341 54.05 168.942 54.1706C168.544 54.2912 168.138 54.3521 167.729 54.3521C167.554 54.3521 167.371 54.3465 167.178 54.3365C166.985 54.3252 166.798 54.311 166.62 54.2926C166.441 54.2741 166.275 54.2543 166.123 54.2316C165.971 54.2103 165.849 54.1862 165.757 54.1592V59.3549H164.061V48.1352V48.1338ZM165.757 53.5309C165.946 53.5905 166.15 53.6458 166.37 53.6997C166.59 53.7536 166.814 53.7805 167.041 53.7805C167.408 53.7805 167.729 53.7195 168.001 53.599C168.273 53.4784 168.501 53.3124 168.681 53.0997C168.863 52.8883 168.998 52.6401 169.087 52.3593C169.176 52.077 169.22 51.7749 169.22 51.4529C169.22 51.077 169.161 50.7352 169.043 50.426C168.925 50.1167 168.764 49.8558 168.561 49.6402C168.358 49.426 168.119 49.2586 167.843 49.1409C167.568 49.0231 167.273 48.9636 166.958 48.9636H165.756V53.5309H165.757Z" fill="white"/>
<path d="M176.363 59.539C175.837 59.539 175.342 59.4284 174.881 59.2085C174.421 58.9887 174.016 58.6894 173.67 58.3107C173.324 57.9319 173.052 57.4894 172.851 56.9816C172.651 56.4738 172.55 55.9306 172.55 55.3504C172.55 54.6582 172.642 54.0157 172.825 53.4256C173.008 52.8356 173.268 52.3249 173.601 51.8951C173.934 51.4654 174.337 51.1306 174.808 50.8881C175.279 50.6469 175.802 50.5264 176.376 50.5264C176.888 50.5264 177.358 50.6257 177.782 50.8242C178.207 51.0228 178.571 51.2909 178.876 51.6256C179.181 51.9618 179.417 52.349 179.587 52.7902C179.756 53.2299 179.841 53.6923 179.841 54.176H174.035C174.035 54.7561 174.103 55.2937 174.238 55.7901C174.372 56.2866 174.561 56.7149 174.803 57.0752C175.045 57.4355 175.335 57.7163 175.673 57.9206C176.01 58.1248 176.38 58.227 176.782 58.227C177.119 58.227 177.444 58.166 177.753 58.0454C178.062 57.9249 178.343 57.766 178.594 57.5702C178.845 57.3745 179.059 57.149 179.235 56.8937C179.411 56.6383 179.536 56.3774 179.608 56.1079L180.051 56.3249C179.94 56.7703 179.76 57.1873 179.51 57.5773C179.261 57.9674 178.971 58.3064 178.641 58.5958C178.311 58.8851 177.947 59.1149 177.553 59.2837C177.159 59.4525 176.762 59.5376 176.361 59.5376L176.363 59.539ZM177.908 53.4824C177.908 53.1547 177.855 52.8497 177.752 52.5675C177.648 52.2852 177.505 52.0412 177.323 51.8342C177.142 51.6271 176.929 51.4654 176.685 51.3462C176.441 51.2271 176.179 51.1689 175.9 51.1689C175.667 51.1689 175.444 51.2285 175.229 51.3462C175.013 51.4639 174.823 51.6256 174.656 51.8299C174.489 52.0341 174.351 52.2767 174.243 52.559C174.134 52.8412 174.067 53.1462 174.043 53.4738L177.906 53.4824H177.908Z" fill="white"/>
<path d="M182.244 50.7042H183.782V52.3396C183.931 52.0985 184.094 51.8673 184.267 51.6475C184.441 51.4276 184.621 51.2347 184.81 51.0673C184.999 50.9014 185.193 50.7695 185.393 50.673C185.593 50.5765 185.797 50.5283 186.005 50.5283C186.174 50.5283 186.332 50.5567 186.476 50.6134C186.621 50.6702 186.748 50.7453 186.856 50.839C186.964 50.9326 187.051 51.0432 187.113 51.1694C187.175 51.2957 187.207 51.429 187.207 51.568C187.207 51.8475 187.129 52.0574 186.971 52.2006C186.814 52.3425 186.595 52.4134 186.315 52.4134C186.14 52.4134 186.001 52.3935 185.898 52.3524C185.794 52.3127 185.699 52.2659 185.615 52.2148C185.53 52.1638 185.445 52.1184 185.359 52.0772C185.272 52.0375 185.163 52.0162 185.033 52.0162C184.93 52.0162 184.828 52.0503 184.725 52.117C184.621 52.1836 184.516 52.2772 184.413 52.3992C184.309 52.5198 184.204 52.6616 184.098 52.8262C183.992 52.9893 183.885 53.168 183.779 53.3623V59.3552H182.242V50.7042H182.244Z" fill="white"/>
<path d="M190.488 50.7036V56.8567C190.488 57.0723 190.532 57.2737 190.621 57.4652C190.711 57.6553 190.833 57.8212 190.987 57.9603C191.142 58.1007 191.323 58.2113 191.53 58.295C191.737 58.3787 191.96 58.4198 192.197 58.4198C192.352 58.4198 192.516 58.3829 192.69 58.3106C192.865 58.2383 193.035 58.1376 193.201 58.0085C193.368 57.8794 193.524 57.7305 193.672 57.5617C193.819 57.3929 193.941 57.2113 194.038 57.0184V50.7036H195.581V59.3546H194.038V57.7361C193.903 57.983 193.733 58.217 193.527 58.4368C193.322 58.6567 193.099 58.8496 192.861 59.0127C192.621 59.1758 192.376 59.3049 192.122 59.4C191.868 59.4936 191.628 59.5404 191.401 59.5404C191.062 59.5404 190.745 59.4695 190.444 59.3276C190.145 59.1858 189.884 58.9929 189.661 58.7517C189.439 58.5106 189.264 58.2269 189.137 57.9021C189.009 57.5773 188.944 57.2298 188.944 56.8596V50.7065H190.488V50.7036Z" fill="white"/>
<path d="M198.876 50.7036L201.63 57.2525L204.268 50.7036H204.979L201.47 59.451H200.927L197.253 50.7036H198.876Z" fill="white"/>
<path d="M207.489 46.2739C207.609 46.2739 207.724 46.2966 207.833 46.342C207.942 46.3874 208.036 46.4498 208.115 46.5278C208.195 46.6058 208.259 46.6966 208.308 46.8016C208.357 46.9065 208.381 47.0172 208.381 47.1363C208.381 47.2555 208.357 47.3661 208.308 47.4711C208.26 47.576 208.196 47.6668 208.115 47.7448C208.036 47.8228 207.941 47.8853 207.833 47.9306C207.725 47.976 207.609 47.9987 207.489 47.9987C207.368 47.9987 207.255 47.976 207.148 47.9306C207.042 47.8853 206.95 47.8228 206.869 47.7448C206.79 47.6668 206.726 47.576 206.677 47.4711C206.629 47.3661 206.605 47.2555 206.605 47.1363C206.605 47.0172 206.629 46.9065 206.677 46.8016C206.726 46.6966 206.79 46.6058 206.869 46.5278C206.948 46.4498 207.042 46.3888 207.148 46.342C207.255 46.2952 207.368 46.2739 207.489 46.2739ZM206.736 51.0171L207.823 50.5263H208.273V59.3546H206.737V51.0185L206.736 51.0171Z" fill="white"/>
<path d="M216.631 59.3546H215.08V58.1702C214.897 58.3263 214.717 58.4837 214.54 58.6454C214.364 58.8057 214.172 58.9546 213.967 59.088C213.761 59.2227 213.534 59.3305 213.286 59.4142C213.036 59.4979 212.749 59.539 212.42 59.539C212.115 59.539 211.84 59.4837 211.593 59.3745C211.346 59.2638 211.136 59.1121 210.962 58.9192C210.787 58.7263 210.655 58.4979 210.563 58.2341C210.471 57.9702 210.426 57.6866 210.426 57.3802C210.426 57.01 210.492 56.6752 210.624 56.3774C210.758 56.0795 210.939 55.8128 211.167 55.5759C211.397 55.3405 211.665 55.1306 211.971 54.9476C212.278 54.7646 212.602 54.6015 212.946 54.4568C213.289 54.3121 213.643 54.1831 214.008 54.0696C214.372 53.9561 214.728 53.8526 215.077 53.7547V53.2157C215.077 52.8242 215.042 52.4923 214.972 52.2214C214.903 51.9505 214.802 51.732 214.672 51.5647C214.541 51.3987 214.382 51.2781 214.196 51.2058C214.011 51.1335 213.801 51.0966 213.57 51.0966C213.309 51.0966 213.096 51.1349 212.932 51.21C212.767 51.2852 212.638 51.3845 212.544 51.5079C212.449 51.6313 212.386 51.7717 212.351 51.9306C212.317 52.0895 212.3 52.2483 212.3 52.41C212.3 52.5604 212.289 52.7051 212.268 52.8455C212.247 52.9859 212.207 53.1079 212.149 53.2114C212.091 53.315 212.013 53.4001 211.913 53.4653C211.814 53.5306 211.688 53.5618 211.533 53.5618C211.413 53.5618 211.302 53.5363 211.204 53.4852C211.105 53.4341 211.02 53.3632 210.946 53.2724C210.874 53.1817 210.818 53.0739 210.779 52.9505C210.741 52.827 210.721 52.6923 210.721 52.5476C210.721 52.2625 210.806 51.9973 210.974 51.7505C211.143 51.5037 211.37 51.2909 211.655 51.1108C211.94 50.9306 212.273 50.7888 212.655 50.6838C213.036 50.5789 213.438 50.5264 213.858 50.5264C214.369 50.5264 214.802 50.5817 215.155 50.6909C215.508 50.8015 215.793 50.9562 216.01 51.1547C216.227 51.3533 216.385 51.5944 216.481 51.8795C216.578 52.1646 216.626 52.4781 216.626 52.8214V59.3532L216.631 59.3546ZM215.08 54.3121C214.857 54.393 214.628 54.4838 214.388 54.5859C214.148 54.688 213.914 54.8015 213.685 54.9277C213.455 55.054 213.236 55.1901 213.028 55.3391C212.819 55.4866 212.638 55.644 212.481 55.81C212.323 55.9759 212.198 56.1532 212.108 56.3419C212.015 56.5291 211.97 56.7263 211.97 56.9305C211.97 57.1348 212.005 57.3405 212.075 57.5305C212.144 57.7206 212.238 57.888 212.354 58.0298C212.471 58.1717 212.604 58.2851 212.757 58.3674C212.909 58.4511 213.068 58.4922 213.232 58.4922C213.407 58.4922 213.571 58.4667 213.728 58.4156C213.886 58.3646 214.038 58.2965 214.185 58.21C214.333 58.1234 214.48 58.0227 214.628 57.9078C214.775 57.7929 214.925 57.6695 215.08 57.5419V54.3121Z" fill="white"/>
<path d="M219.439 50.7037H220.984V52.2824C221.452 51.6966 221.941 51.2583 222.447 50.9661C222.955 50.6739 223.471 50.5264 223.999 50.5264C224.269 50.5264 224.523 50.5945 224.763 50.732C225.003 50.8696 225.21 51.0554 225.385 51.2923C225.561 51.5292 225.702 51.8058 225.805 52.1263C225.909 52.4455 225.961 52.7859 225.961 53.1448V59.3546H224.41V53.4341C224.41 52.8653 224.294 52.4327 224.062 52.1377C223.83 51.8427 223.533 51.6951 223.17 51.6951C223.006 51.6951 222.833 51.7249 222.648 51.7831C222.464 51.8412 222.278 51.9264 222.09 52.037C221.901 52.1476 221.713 52.2781 221.524 52.4313C221.335 52.5845 221.154 52.7547 220.981 52.9434V59.3546H219.436V50.7037H219.439Z" fill="white"/>
<path d="M240.55 48.1338V48.8586H235.629V52.8699H239.187V53.5947H235.629V59.3535H233.933V48.1338H240.55Z" fill="white"/>
<path d="M246.061 59.5395C245.466 59.5395 244.916 59.4247 244.411 59.1935C243.906 58.9622 243.471 58.6488 243.107 58.2516C242.742 57.8545 242.457 57.3892 242.251 56.8545C242.046 56.3197 241.944 55.7495 241.944 55.1424C241.944 54.5042 242.046 53.9042 242.251 53.3425C242.457 52.7808 242.742 52.2928 243.107 51.8772C243.471 51.4616 243.906 51.1326 244.411 50.89C244.916 50.6489 245.466 50.5283 246.061 50.5283C246.655 50.5283 247.202 50.639 247.703 50.8588C248.203 51.0787 248.636 51.3808 249.003 51.7652C249.37 52.1496 249.657 52.6006 249.863 53.1184C250.068 53.6361 250.17 54.1907 250.17 54.7822C250.17 55.4375 250.068 56.0531 249.863 56.6304C249.657 57.2077 249.37 57.7126 249.003 58.1452C248.636 58.5779 248.202 58.9183 247.703 59.1679C247.202 59.4176 246.655 59.5424 246.061 59.5424V59.5395ZM246.351 58.9041C246.656 58.9041 246.934 58.8162 247.188 58.6417C247.442 58.4672 247.662 58.2332 247.847 57.941C248.033 57.6488 248.178 57.3055 248.278 56.914C248.381 56.5226 248.43 56.1084 248.43 55.6744C248.43 55.046 248.382 54.4588 248.286 53.9141C248.189 53.3694 248.032 52.8928 247.815 52.4843C247.598 52.0758 247.314 51.7553 246.967 51.5212C246.619 51.2872 246.191 51.1709 245.683 51.1709C245.422 51.1709 245.171 51.2546 244.93 51.4205C244.689 51.5865 244.475 51.8148 244.289 52.1056C244.103 52.395 243.955 52.734 243.844 53.1198C243.733 53.5056 243.677 53.9169 243.677 54.3524C243.677 54.9807 243.738 55.5708 243.858 56.124C243.979 56.6772 244.153 57.1594 244.38 57.5694C244.607 57.9807 244.888 58.3055 245.221 58.5438C245.554 58.7835 245.931 58.9027 246.351 58.9027V58.9041Z" fill="white"/>
<path d="M256.189 59.5395C255.595 59.5395 255.044 59.4247 254.54 59.1935C254.035 58.9622 253.599 58.6488 253.235 58.2516C252.87 57.8545 252.585 57.3892 252.38 56.8545C252.174 56.3197 252.072 55.7495 252.072 55.1424C252.072 54.5042 252.174 53.9042 252.38 53.3425C252.585 52.7808 252.87 52.2928 253.235 51.8772C253.599 51.4616 254.035 51.1326 254.54 50.89C255.044 50.6489 255.595 50.5283 256.189 50.5283C256.783 50.5283 257.33 50.639 257.831 50.8588C258.332 51.0787 258.764 51.3808 259.131 51.7652C259.499 52.1496 259.785 52.6006 259.991 53.1184C260.196 53.6361 260.299 54.1907 260.299 54.7822C260.299 55.4375 260.196 56.0531 259.991 56.6304C259.785 57.2077 259.499 57.7126 259.131 58.1452C258.764 58.5779 258.33 58.9183 257.831 59.1679C257.33 59.4176 256.783 59.5424 256.189 59.5424V59.5395ZM256.478 58.9041C256.783 58.9041 257.061 58.8162 257.315 58.6417C257.569 58.4672 257.788 58.2332 257.974 57.941C258.16 57.6488 258.305 57.3055 258.405 56.914C258.507 56.5226 258.557 56.1084 258.557 55.6744C258.557 55.046 258.509 54.4588 258.412 53.9141C258.316 53.3694 258.159 52.8928 257.942 52.4843C257.725 52.0758 257.441 51.7553 257.094 51.5212C256.746 51.2872 256.318 51.1709 255.81 51.1709C255.549 51.1709 255.298 51.2546 255.057 51.4205C254.816 51.5865 254.602 51.8148 254.416 52.1056C254.23 52.395 254.081 52.734 253.971 53.1198C253.86 53.507 253.803 53.9169 253.803 54.3524C253.803 54.9807 253.864 55.5708 253.985 56.124C254.106 56.6772 254.28 57.1594 254.507 57.5694C254.734 57.9807 255.015 58.3055 255.348 58.5438C255.681 58.7835 256.058 58.9027 256.478 58.9027V58.9041Z" fill="white"/>
<path d="M268.034 58.5078C267.856 58.6695 267.663 58.8127 267.454 58.939C267.246 59.0652 267.03 59.173 266.806 59.2609C266.582 59.3489 266.354 59.4184 266.126 59.4666C265.896 59.5148 265.673 59.539 265.455 59.539C264.995 59.539 264.567 59.4212 264.168 59.1843C263.77 58.9475 263.423 58.6283 263.125 58.2255C262.828 57.8227 262.593 57.356 262.421 56.8241C262.25 56.2922 262.165 55.7319 262.165 55.1404C262.165 54.7489 262.214 54.3617 262.314 53.9802C262.413 53.5986 262.55 53.2383 262.726 52.8965C262.902 52.5561 263.115 52.2398 263.364 51.9504C263.613 51.661 263.889 51.41 264.194 51.1972C264.499 50.9845 264.824 50.8199 265.168 50.7022C265.513 50.5845 265.875 50.5249 266.252 50.5249C266.629 50.5249 266.959 50.5986 267.244 50.7462C267.529 50.8937 267.793 51.088 268.034 51.3306V46.7632L269.114 46.2725H269.57V59.5375H268.033V58.5063L268.034 58.5078ZM268.034 53.4497C268.034 53.1121 267.978 52.8015 267.864 52.5192C267.751 52.2369 267.602 51.9972 267.419 51.7986C267.234 51.6 267.027 51.4454 266.795 51.3362C266.564 51.2256 266.328 51.1703 266.091 51.1703C265.782 51.1703 265.493 51.2568 265.225 51.4284C264.957 51.6001 264.723 51.8398 264.522 52.1447C264.322 52.4511 264.163 52.8171 264.047 53.244C263.93 53.6709 263.872 54.139 263.872 54.6497C263.872 55.1972 263.936 55.7121 264.065 56.1915C264.193 56.6723 264.368 57.0908 264.59 57.4482C264.812 57.8056 265.072 58.0865 265.368 58.2936C265.665 58.5007 265.982 58.6042 266.321 58.6042C266.486 58.6042 266.649 58.5801 266.81 58.5319C266.972 58.4836 267.127 58.4184 267.274 58.339C267.422 58.2581 267.561 58.1645 267.691 58.0567C267.822 57.9489 267.935 57.8368 268.031 57.7177V53.4483L268.034 53.4497Z" fill="white"/>
<path d="M25.8329 2.32422L41.4381 39.9961H35.7769L30.7099 27.704H16.5087L11.2758 39.9961H8.492L24.4531 2.32422H25.8329ZM17.4844 25.3239H29.6874L23.6689 10.7582L17.4844 25.3239Z" fill="white"/>
<path d="M47.3715 3.16992L59.8596 32.4603L71.4926 3.16992H74.1331L59.0754 40.8673H57.6487L41.4962 3.16992H47.3715Z" fill="white"/>
<path d="M101.394 3.16992V5.54861H83.9338V18.7144H95.6136V21.0931H83.9338V37.6163H101.394V39.995H78.3677V3.16992H101.394Z" fill="white"/>
<path d="M107.578 3.16992H110.694L132.413 30.0816H132.627V3.16992H135.077V40.8673H133.793L110.267 10.9145H110.077V39.995H107.58V3.16992H107.578Z" fill="white"/>
<path d="M169.759 3.16992V5.54861H157.77V39.995H152.204V5.55003H140.191V3.16992H169.759Z" fill="white"/>
<path d="M174.279 3.16992H179.845V27.0675C179.845 28.6363 180.086 30.1128 180.571 31.4958C181.055 32.8802 181.748 34.0915 182.653 35.1312C183.556 36.1709 184.643 36.9907 185.912 37.5893C187.181 38.1893 188.601 38.4886 190.17 38.4886C191.74 38.4886 193.183 38.1893 194.452 37.5893C195.721 36.9907 196.799 36.1709 197.686 35.1312C198.574 34.0915 199.256 32.8802 199.733 31.4958C200.208 30.1128 200.446 28.6363 200.446 27.0675V3.16992H202.897V27.0675C202.897 28.954 202.623 30.7284 202.076 32.3951C201.528 34.0603 200.667 35.5241 199.495 36.7837C198.32 38.0446 196.819 39.0404 194.986 39.7709C193.156 40.5028 190.955 40.8687 188.385 40.8687C186.102 40.8687 184.08 40.5028 182.32 39.7709C180.56 39.0404 179.085 38.039 177.895 36.7709C176.705 35.5014 175.806 34.022 175.195 32.3298C174.584 30.6376 174.279 28.8405 174.279 26.937V3.16992Z" fill="white"/>
<path d="M210.627 3.16992H222.093C224.091 3.16992 225.839 3.40822 227.338 3.88339C228.837 4.35856 230.087 5.02522 231.085 5.87911C232.085 6.73441 232.836 7.74717 233.346 8.91878C233.853 10.0904 234.107 11.3727 234.107 12.7655C234.107 13.9116 233.913 14.9825 233.524 15.9768C233.136 16.9726 232.585 17.8719 231.871 18.6733C231.157 19.4747 230.301 20.1711 229.301 20.7612C228.301 21.3512 227.199 21.8051 225.994 22.1229L238.054 39.9935H231.607L220.093 22.6775H216.192V39.9935H210.626V3.16992H210.627ZM216.193 20.8293H219.405C220.657 20.8293 221.812 20.6449 222.867 20.2747C223.922 19.9045 224.837 19.3811 225.614 18.7016C226.391 18.0236 226.997 17.1995 227.433 16.2307C227.869 15.262 228.087 14.1783 228.087 12.9797C228.087 11.8875 227.913 10.8776 227.564 9.95281C227.215 9.028 226.731 8.2351 226.113 7.57412C225.495 6.91313 224.757 6.39825 223.901 6.02804C223.044 5.65783 222.108 5.47344 221.094 5.47344H216.195V20.8321L216.193 20.8293Z" fill="white"/>
<path d="M255.515 2.32422L271.12 39.9961H265.459L260.392 27.704H246.191L240.958 39.9961H238.174L254.135 2.32422H255.515ZM247.165 25.3239H259.368L253.35 10.7582L247.165 25.3239Z" fill="white"/>
</svg>
