<svg width="190" height="47" viewBox="0 0 190 47" fill="none" xmlns="http://www.w3.org/2000/svg">
<path d="M67.5063 41.0028C67.5063 41.3755 67.5565 41.7093 67.6571 42.0035C67.7576 42.2978 67.8957 42.5471 68.0713 42.7516C68.2469 42.956 68.4554 43.1122 68.6967 43.2201C68.9373 43.328 69.1987 43.3816 69.4796 43.3816C69.6465 43.3816 69.8073 43.3454 69.9628 43.273C70.1183 43.2006 70.2624 43.1068 70.3958 42.9915C70.5292 42.8762 70.6485 42.7455 70.7538 42.5994C70.859 42.4533 70.9455 42.3058 71.0138 42.1557L71.3496 42.3956C71.2511 42.5733 71.1358 42.7449 71.0018 42.9097C70.8684 43.0746 70.7135 43.2201 70.5372 43.3454C70.3616 43.4708 70.1626 43.572 69.9414 43.6484C69.7202 43.7241 69.4722 43.7623 69.198 43.7623C68.9239 43.7623 68.688 43.7288 68.4547 43.6618C68.2221 43.5948 68.0076 43.5009 67.8126 43.3803C67.6175 43.2596 67.4426 43.1149 67.2884 42.9446C67.1343 42.7743 67.0042 42.5873 66.8976 42.3829C66.7917 42.1785 66.71 41.96 66.653 41.726C66.596 41.4928 66.5672 41.2515 66.5672 41.0028C66.5672 40.7541 66.596 40.5122 66.6543 40.2776C66.7127 40.043 66.7958 39.8218 66.9044 39.6153C67.0129 39.4089 67.1456 39.2192 67.3032 39.0463C67.4607 38.874 67.6383 38.7259 67.836 38.6025C68.0338 38.4792 68.2503 38.3834 68.4849 38.315C68.7201 38.2466 68.9715 38.2124 69.2383 38.2124C69.505 38.2124 69.7249 38.2507 69.9387 38.3264C70.1525 38.4021 70.3476 38.5033 70.5245 38.6287C70.7015 38.754 70.8583 38.8995 70.9957 39.0644C71.1325 39.2293 71.2504 39.4008 71.3483 39.5785L71.0024 39.8372C70.8013 39.4082 70.5775 39.0939 70.3308 38.8934C70.0841 38.693 69.8013 38.5925 69.4816 38.5925C69.2054 38.5925 68.9474 38.6481 68.7074 38.7601C68.4674 38.872 68.2583 39.0315 68.0807 39.2393C67.9024 39.4471 67.7623 39.6998 67.6591 39.9967C67.5565 40.2937 67.5049 40.6288 67.5049 41.0015L67.5063 41.0028Z" fill="#010101"/>
<path d="M74.3142 43.7241C74.0334 43.7241 73.7733 43.6698 73.5347 43.5606C73.2961 43.4513 73.0903 43.3032 72.918 43.1155C72.7458 42.9278 72.611 42.708 72.5139 42.4553C72.4167 42.2026 72.3684 41.9332 72.3684 41.6463C72.3684 41.3446 72.4167 41.0611 72.5139 40.7957C72.611 40.5303 72.7458 40.2997 72.918 40.1033C73.0903 39.9069 73.2961 39.7514 73.5347 39.6368C73.7733 39.5228 74.0334 39.4659 74.3142 39.4659C74.5951 39.4659 74.8538 39.5181 75.0904 39.622C75.327 39.7259 75.5314 39.8687 75.705 40.0503C75.8786 40.232 76.014 40.4451 76.1112 40.6898C76.2084 40.9344 76.2567 41.1965 76.2567 41.476C76.2567 41.7857 76.2084 42.0766 76.1112 42.3494C76.014 42.6222 75.8786 42.8608 75.705 43.0652C75.5314 43.2697 75.3263 43.4306 75.0904 43.5485C74.8538 43.6665 74.5957 43.7255 74.3142 43.7255V43.7241ZM74.451 43.4232C74.5951 43.4232 74.7264 43.3816 74.8464 43.2992C74.9664 43.2167 75.0703 43.1061 75.1581 42.9681C75.2459 42.83 75.3143 42.6678 75.3619 42.4828C75.4101 42.2978 75.4336 42.1021 75.4336 41.897C75.4336 41.6 75.4108 41.3225 75.3652 41.0651C75.3196 40.8078 75.2452 40.5825 75.1427 40.3895C75.0401 40.1965 74.9061 40.045 74.7419 39.9344C74.5776 39.8238 74.3752 39.7688 74.1353 39.7688C74.0119 39.7688 73.8933 39.8084 73.7793 39.8868C73.6654 39.9652 73.5642 40.0731 73.4764 40.2105C73.3886 40.3473 73.3182 40.5075 73.2659 40.6898C73.2136 40.8728 73.1868 41.0665 73.1868 41.2723C73.1868 41.5692 73.2156 41.848 73.2726 42.1094C73.3296 42.3708 73.412 42.5987 73.5193 42.7924C73.6265 42.9868 73.7592 43.1403 73.9167 43.2529C74.0743 43.3662 74.2526 43.4225 74.451 43.4225V43.4232Z" fill="#010101"/>
<path d="M79.4707 39.5483V39.8908H78.4874V43.6363H77.7541V39.8908H76.9833V39.5483H77.7541V39.0684C77.7541 38.8452 77.7903 38.6354 77.862 38.4383C77.9337 38.2419 78.0316 38.0704 78.1549 37.9242C78.2782 37.7781 78.423 37.6635 78.5899 37.5797C78.7568 37.4959 78.9345 37.4544 79.1241 37.4544C79.2864 37.4544 79.4305 37.4725 79.5571 37.5093C79.6838 37.5462 79.7904 37.5958 79.8775 37.6581C79.964 37.7205 80.0304 37.7942 80.0759 37.8787C80.1215 37.9638 80.1443 38.0543 80.1443 38.1508C80.1443 38.2118 80.1342 38.2654 80.1135 38.3123C80.0927 38.3592 80.0652 38.3995 80.031 38.4323C79.9968 38.4651 79.9566 38.4906 79.911 38.5087C79.8655 38.5268 79.8172 38.5355 79.7669 38.5355C79.6778 38.5355 79.6101 38.5168 79.5632 38.4785C79.5163 38.4403 79.4801 38.3921 79.4553 38.3338C79.4305 38.2755 79.4103 38.2125 79.3956 38.1454C79.3809 38.0784 79.3594 38.0154 79.3319 37.9571C79.3044 37.8988 79.2649 37.8505 79.214 37.8123C79.163 37.7741 79.0886 37.7553 78.9928 37.7553C78.9197 37.7553 78.852 37.7788 78.789 37.8257C78.726 37.8726 78.6724 37.9343 78.6281 38.01C78.5839 38.0858 78.549 38.1736 78.5236 38.2728C78.4981 38.372 78.486 38.4732 78.486 38.5771V39.5476H79.4693L79.4707 39.5483Z" fill="#010101"/>
<path d="M82.5828 39.5483V39.8908H81.5995V43.6363H80.8662V39.8908H80.0954V39.5483H80.8662V39.0684C80.8662 38.8452 80.9024 38.6354 80.9741 38.4383C81.0458 38.2419 81.1437 38.0704 81.267 37.9242C81.3904 37.7781 81.5352 37.6635 81.702 37.5797C81.8689 37.4959 82.0466 37.4544 82.2363 37.4544C82.3985 37.4544 82.5426 37.4725 82.6693 37.5093C82.7959 37.5462 82.9025 37.5958 82.9896 37.6581C83.0761 37.7205 83.1425 37.7942 83.188 37.8787C83.2336 37.9638 83.2564 38.0543 83.2564 38.1508C83.2564 38.2118 83.2464 38.2654 83.2256 38.3123C83.2048 38.3592 83.1773 38.3995 83.1431 38.4323C83.109 38.4651 83.0687 38.4906 83.0232 38.5087C82.9776 38.5268 82.9293 38.5355 82.8791 38.5355C82.7899 38.5355 82.7222 38.5168 82.6753 38.4785C82.6284 38.4403 82.5922 38.3921 82.5674 38.3338C82.5426 38.2755 82.5225 38.2125 82.5077 38.1454C82.493 38.0784 82.4715 38.0154 82.444 37.9571C82.4166 37.8988 82.377 37.8505 82.3261 37.8123C82.2751 37.7741 82.2007 37.7553 82.1049 37.7553C82.0318 37.7553 81.9641 37.7788 81.9011 37.8257C81.8381 37.8726 81.7845 37.9343 81.7403 38.01C81.696 38.0858 81.6612 38.1736 81.6357 38.2728C81.6102 38.372 81.5982 38.4732 81.5982 38.5771V39.5476H82.5815L82.5828 39.5483Z" fill="#010101"/>
<path d="M85.1633 43.7241C84.9147 43.7241 84.6807 43.6719 84.4629 43.568C84.2451 43.4641 84.054 43.3227 83.8905 43.1437C83.7269 42.9647 83.5982 42.7556 83.5037 42.5156C83.4092 42.2757 83.3616 42.019 83.3616 41.7448C83.3616 41.4177 83.4052 41.1141 83.4917 40.8353C83.5781 40.5564 83.7008 40.3151 83.8583 40.112C84.0158 39.9089 84.2062 39.7507 84.4287 39.6361C84.6512 39.5222 84.8986 39.4652 85.17 39.4652C85.412 39.4652 85.6339 39.5121 85.8343 39.606C86.0354 39.6998 86.2076 39.8265 86.3517 39.9847C86.4958 40.1435 86.6071 40.3265 86.6875 40.535C86.7673 40.7428 86.8075 40.9613 86.8075 41.1898H84.0634C84.0634 41.464 84.0956 41.718 84.1593 41.9526C84.2229 42.1872 84.3121 42.3896 84.4267 42.5599C84.5407 42.7301 84.6781 42.8628 84.8376 42.9594C84.9971 43.0559 85.172 43.1041 85.3617 43.1041C85.5213 43.1041 85.6748 43.0753 85.8209 43.0183C85.967 42.9614 86.0997 42.8863 86.2184 42.7938C86.337 42.7013 86.4382 42.5947 86.5213 42.4741C86.6044 42.3534 86.6634 42.2301 86.6976 42.1027L86.9067 42.2053C86.8544 42.4158 86.7693 42.6128 86.6513 42.7972C86.5334 42.9815 86.3966 43.1417 86.2405 43.2784C86.0843 43.4151 85.9127 43.5237 85.7264 43.6035C85.54 43.6833 85.3524 43.7235 85.1627 43.7235L85.1633 43.7241ZM85.8933 40.8614C85.8933 40.7066 85.8685 40.5625 85.8195 40.4291C85.7706 40.2957 85.7029 40.1804 85.6171 40.0825C85.5313 39.9847 85.4308 39.9083 85.3155 39.852C85.2002 39.7963 85.0762 39.7682 84.9435 39.7682C84.8336 39.7682 84.7283 39.7963 84.6264 39.852C84.5246 39.9076 84.4347 39.984 84.3557 40.0805C84.2766 40.177 84.2115 40.2917 84.1606 40.425C84.109 40.5584 84.0775 40.7025 84.0668 40.8574L85.8926 40.8614H85.8933Z" fill="#010101"/>
<path d="M89.5731 43.7241C89.3245 43.7241 89.0905 43.6719 88.8727 43.568C88.6549 43.4641 88.4638 43.3227 88.3003 43.1437C88.1367 42.9647 88.008 42.7556 87.9135 42.5156C87.819 42.2757 87.7714 42.019 87.7714 41.7448C87.7714 41.4177 87.815 41.1141 87.9015 40.8353C87.9879 40.5564 88.1106 40.3151 88.2681 40.112C88.4256 39.9089 88.616 39.7507 88.8385 39.6361C89.061 39.5222 89.3084 39.4652 89.5798 39.4652C89.8218 39.4652 90.0437 39.5121 90.2441 39.606C90.4452 39.6998 90.6174 39.8265 90.7615 39.9847C90.9056 40.1435 91.0169 40.3265 91.0973 40.535C91.1771 40.7428 91.2173 40.9613 91.2173 41.1898H88.4732C88.4732 41.464 88.5054 41.718 88.5691 41.9526C88.6327 42.1872 88.7219 42.3896 88.8365 42.5599C88.9504 42.7301 89.0878 42.8628 89.2474 42.9594C89.4069 43.0559 89.5818 43.1041 89.7715 43.1041C89.9311 43.1041 90.0846 43.0753 90.2307 43.0183C90.3768 42.9614 90.5095 42.8863 90.6281 42.7938C90.7468 42.7013 90.848 42.5947 90.9311 42.4741C91.0142 42.3534 91.0732 42.2301 91.1074 42.1027L91.3165 42.2053C91.2642 42.4158 91.1791 42.6128 91.0611 42.7972C90.9432 42.9815 90.8064 43.1417 90.6503 43.2784C90.4941 43.4151 90.3225 43.5237 90.1362 43.6035C89.9498 43.6833 89.7621 43.7235 89.5725 43.7235L89.5731 43.7241ZM90.3031 40.8614C90.3031 40.7066 90.2783 40.5625 90.2293 40.4291C90.1804 40.2957 90.1127 40.1804 90.0269 40.0825C89.9411 39.9847 89.8406 39.9083 89.7253 39.852C89.61 39.7963 89.486 39.7682 89.3533 39.7682C89.2434 39.7682 89.1381 39.7963 89.0362 39.852C88.9344 39.9076 88.8445 39.984 88.7654 40.0805C88.6864 40.177 88.6213 40.2917 88.5704 40.425C88.5195 40.5584 88.4873 40.7025 88.4766 40.8574L90.3024 40.8614H90.3031Z" fill="#010101"/>
<path d="M95.0948 38.3344V45.4367H94.759V38.3344H95.0948Z" fill="#010101"/>
<path d="M98.8792 38.3344H100.801C101.054 38.3344 101.288 38.3659 101.5 38.4296C101.712 38.4933 101.895 38.5818 102.046 38.6957C102.198 38.8097 102.316 38.9471 102.401 39.1066C102.485 39.2661 102.528 39.4431 102.528 39.6354C102.528 39.7802 102.514 39.9096 102.487 40.0235C102.459 40.1375 102.412 40.2441 102.347 40.3413C102.28 40.4391 102.191 40.5316 102.079 40.6194C101.967 40.7072 101.826 40.795 101.658 40.8842V40.8996C101.826 40.9298 101.98 40.9814 102.118 41.0538C102.256 41.1261 102.373 41.218 102.471 41.3299C102.568 41.4418 102.642 41.5705 102.695 41.716C102.747 41.8621 102.774 42.0236 102.774 42.2013C102.774 42.4017 102.735 42.5894 102.656 42.7643C102.578 42.9392 102.466 43.0914 102.32 43.2208C102.176 43.3501 102 43.452 101.794 43.5251C101.588 43.5981 101.359 43.6357 101.106 43.6357H98.8792V38.3338V38.3344ZM99.6809 40.7206H100.702C100.861 40.7206 101.004 40.6952 101.13 40.6449C101.255 40.5939 101.361 40.5236 101.447 40.4337C101.533 40.3439 101.598 40.238 101.642 40.116C101.686 39.994 101.709 39.8613 101.709 39.7166C101.709 39.5617 101.683 39.421 101.63 39.2943C101.578 39.1676 101.495 39.059 101.383 38.9685C101.271 38.8787 101.13 38.809 100.958 38.7614C100.787 38.7131 100.582 38.689 100.342 38.689H99.6809V40.7213V40.7206ZM99.6809 43.2482H100.548C100.781 43.2482 100.983 43.2234 101.154 43.1738C101.326 43.1242 101.467 43.0552 101.579 42.9661C101.691 42.8776 101.773 42.7703 101.827 42.6443C101.881 42.519 101.908 42.3809 101.908 42.2314C101.908 42.0639 101.883 41.9077 101.836 41.7636C101.788 41.6188 101.709 41.4941 101.599 41.3889C101.489 41.2837 101.346 41.2005 101.171 41.1395C100.995 41.0786 100.779 41.0484 100.523 41.0484H99.6809V43.2482Z" fill="#010101"/>
<path d="M103.724 39.5483H104.451V40.3212C104.522 40.2072 104.598 40.0979 104.68 39.9941C104.762 39.8902 104.848 39.799 104.937 39.7199C105.026 39.6415 105.118 39.5792 105.212 39.5336C105.307 39.488 105.403 39.4652 105.502 39.4652C105.581 39.4652 105.656 39.4786 105.724 39.5054C105.792 39.5322 105.853 39.5678 105.904 39.612C105.955 39.6562 105.996 39.7085 106.025 39.7682C106.055 39.8278 106.07 39.8908 106.07 39.9565C106.07 40.0886 106.032 40.1878 105.959 40.2555C105.884 40.3225 105.781 40.356 105.648 40.356C105.566 40.356 105.5 40.3466 105.451 40.3272C105.402 40.3084 105.357 40.2863 105.318 40.2622C105.278 40.238 105.237 40.2166 105.197 40.1972C105.156 40.1784 105.104 40.1683 105.042 40.1683C104.994 40.1683 104.946 40.1844 104.897 40.2159C104.848 40.2474 104.798 40.2917 104.75 40.3493C104.701 40.4063 104.651 40.4733 104.601 40.5511C104.55 40.6281 104.5 40.7126 104.45 40.8044V43.6363H103.723V39.5483H103.724Z" fill="#010101"/>
<path d="M108.521 43.7241C108.272 43.7241 108.039 43.6719 107.821 43.568C107.602 43.4641 107.412 43.3227 107.248 43.1437C107.085 42.9647 106.956 42.7556 106.861 42.5156C106.766 42.2757 106.719 42.019 106.719 41.7448C106.719 41.4177 106.762 41.1141 106.849 40.8353C106.935 40.5564 107.058 40.3151 107.215 40.112C107.373 39.9089 107.563 39.7507 107.786 39.6361C108.008 39.5215 108.256 39.4652 108.527 39.4652C108.769 39.4652 108.991 39.5121 109.191 39.606C109.392 39.6998 109.565 39.8265 109.709 39.9847C109.853 40.1435 109.964 40.3265 110.045 40.535C110.124 40.7428 110.165 40.9613 110.165 41.1898H107.421C107.421 41.464 107.453 41.718 107.516 41.9526C107.58 42.1872 107.669 42.3896 107.784 42.5599C107.898 42.7301 108.035 42.8628 108.195 42.9594C108.354 43.0559 108.529 43.1041 108.719 43.1041C108.878 43.1041 109.032 43.0753 109.178 43.0183C109.324 42.9614 109.457 42.8863 109.575 42.7938C109.694 42.7013 109.795 42.5947 109.878 42.4741C109.962 42.3534 110.021 42.2301 110.055 42.1027L110.264 42.2053C110.212 42.4158 110.126 42.6128 110.008 42.7972C109.89 42.9815 109.754 43.1417 109.598 43.2784C109.441 43.4151 109.27 43.5237 109.083 43.6035C108.897 43.6833 108.709 43.7235 108.52 43.7235L108.521 43.7241ZM109.251 40.8614C109.251 40.7066 109.226 40.5625 109.177 40.4291C109.128 40.2957 109.061 40.1804 108.975 40.0825C108.889 39.9847 108.789 39.9083 108.673 39.852C108.558 39.7963 108.434 39.7682 108.302 39.7682C108.192 39.7682 108.087 39.7963 107.985 39.852C107.883 39.9076 107.793 39.984 107.714 40.0805C107.635 40.177 107.57 40.2917 107.519 40.425C107.468 40.5584 107.437 40.7025 107.425 40.8574L109.251 40.8614Z" fill="#010101"/>
<path d="M114.011 43.6363H113.277V43.0767C113.19 43.1504 113.106 43.2248 113.022 43.3012C112.939 43.3769 112.849 43.4473 112.751 43.5103C112.654 43.574 112.547 43.6249 112.43 43.6645C112.312 43.704 112.176 43.7235 112.02 43.7235C111.876 43.7235 111.746 43.6973 111.629 43.6457C111.513 43.5934 111.413 43.5217 111.331 43.4306C111.249 43.3394 111.186 43.2315 111.143 43.1068C111.099 42.9828 111.078 42.8481 111.078 42.7033C111.078 42.5284 111.109 42.3702 111.171 42.2294C111.234 42.0887 111.32 41.9627 111.428 41.8507C111.537 41.7395 111.663 41.6403 111.808 41.5538C111.953 41.4673 112.107 41.3902 112.269 41.3219C112.431 41.2535 112.598 41.1925 112.771 41.1389C112.943 41.0853 113.112 41.0363 113.276 40.9901V40.7354C113.276 40.5504 113.259 40.3935 113.227 40.2655C113.194 40.1375 113.146 40.0343 113.084 39.9552C113.023 39.8768 112.948 39.8198 112.86 39.7856C112.772 39.7514 112.673 39.734 112.564 39.734C112.44 39.734 112.34 39.7521 112.262 39.7876C112.184 39.8231 112.123 39.8701 112.079 39.9284C112.035 39.9867 112.004 40.053 111.989 40.1281C111.973 40.2032 111.964 40.2783 111.964 40.3547C111.964 40.4257 111.959 40.4941 111.949 40.5604C111.939 40.6268 111.92 40.6844 111.893 40.7334C111.865 40.7823 111.828 40.8225 111.781 40.8534C111.735 40.8842 111.675 40.8989 111.602 40.8989C111.545 40.8989 111.493 40.8869 111.446 40.8627C111.399 40.8386 111.358 40.8051 111.324 40.7622C111.29 40.7193 111.264 40.6684 111.245 40.61C111.226 40.5517 111.218 40.4881 111.218 40.4197C111.218 40.285 111.258 40.1596 111.338 40.043C111.417 39.9264 111.525 39.8258 111.659 39.7407C111.794 39.6556 111.952 39.5885 112.132 39.5389C112.312 39.4893 112.502 39.4645 112.7 39.4645C112.942 39.4645 113.147 39.4907 113.314 39.5423C113.481 39.5946 113.615 39.6676 113.718 39.7615C113.82 39.8553 113.895 39.9693 113.94 40.104C113.986 40.2387 114.009 40.3868 114.009 40.549V43.6357L114.011 43.6363ZM113.277 41.2535C113.172 41.2917 113.064 41.3346 112.95 41.3829C112.837 41.4311 112.727 41.4848 112.618 41.5444C112.509 41.6041 112.406 41.6684 112.308 41.7388C112.21 41.8085 112.124 41.8829 112.05 41.9613C111.975 42.0397 111.916 42.1235 111.873 42.2127C111.83 42.3012 111.808 42.3943 111.808 42.4908C111.808 42.5874 111.825 42.6845 111.858 42.7744C111.891 42.8642 111.935 42.9433 111.99 43.0103C112.045 43.0773 112.108 43.131 112.18 43.1698C112.252 43.2094 112.327 43.2288 112.405 43.2288C112.487 43.2288 112.565 43.2167 112.639 43.1926C112.714 43.1685 112.786 43.1363 112.855 43.0954C112.925 43.0545 112.995 43.0069 113.064 42.9527C113.134 42.8984 113.205 42.8401 113.278 42.7797V41.2535H113.277Z" fill="#010101"/>
<path d="M116.067 41.1965L117.914 39.5483H118.39L116.742 41.033L118.78 43.6363H117.818L116.067 41.3983V43.6363H115.337V37.687L115.858 37.455H116.067V41.1965Z" fill="#010101"/>
<path d="M121.464 39.5483V39.8908H120.48V43.6363H119.747V39.8908H118.976V39.5483H119.747V39.0684C119.747 38.8452 119.783 38.6354 119.855 38.4383C119.927 38.2419 120.024 38.0704 120.148 37.9242C120.271 37.7781 120.416 37.6635 120.583 37.5797C120.75 37.4959 120.927 37.4544 121.117 37.4544C121.279 37.4544 121.423 37.4725 121.55 37.5093C121.677 37.5462 121.783 37.5958 121.87 37.6581C121.957 37.7205 122.023 37.7942 122.069 37.8787C122.114 37.9638 122.137 38.0543 122.137 38.1508C122.137 38.2118 122.127 38.2654 122.106 38.3123C122.086 38.3592 122.058 38.3995 122.024 38.4323C121.99 38.4651 121.949 38.4906 121.904 38.5087C121.858 38.5268 121.81 38.5355 121.76 38.5355C121.671 38.5355 121.603 38.5168 121.556 38.4785C121.509 38.4403 121.473 38.3921 121.448 38.3338C121.423 38.2755 121.403 38.2125 121.388 38.1454C121.374 38.0784 121.352 38.0154 121.325 37.9571C121.297 37.8988 121.258 37.8505 121.207 37.8123C121.156 37.7741 121.081 37.7553 120.986 37.7553C120.913 37.7553 120.845 37.7788 120.782 37.8257C120.719 37.8726 120.665 37.9343 120.621 38.01C120.576 38.0858 120.542 38.1736 120.516 38.2728C120.491 38.372 120.479 38.4732 120.479 38.5771V39.5476H121.462L121.464 39.5483Z" fill="#010101"/>
<path d="M125.124 43.6363H124.391V43.0767C124.304 43.1504 124.219 43.2248 124.135 43.3012C124.052 43.3769 123.962 43.4473 123.864 43.5103C123.767 43.574 123.66 43.6249 123.543 43.6645C123.425 43.704 123.289 43.7235 123.133 43.7235C122.989 43.7235 122.859 43.6973 122.742 43.6457C122.626 43.5934 122.527 43.5217 122.444 43.4306C122.362 43.3394 122.299 43.2315 122.256 43.1068C122.212 42.9828 122.191 42.8481 122.191 42.7033C122.191 42.5284 122.222 42.3702 122.285 42.2294C122.348 42.0887 122.433 41.9627 122.541 41.8507C122.65 41.7395 122.777 41.6403 122.921 41.5538C123.066 41.4673 123.22 41.3902 123.382 41.3219C123.544 41.2535 123.712 41.1925 123.884 41.1389C124.056 41.0853 124.224 41.0363 124.389 40.9901V40.7354C124.389 40.5504 124.373 40.3935 124.34 40.2655C124.307 40.1375 124.259 40.0343 124.198 39.9552C124.136 39.8768 124.061 39.8198 123.973 39.7856C123.885 39.7514 123.786 39.734 123.677 39.734C123.553 39.734 123.453 39.7521 123.375 39.7876C123.297 39.8231 123.236 39.8701 123.192 39.9284C123.147 39.9867 123.117 40.053 123.101 40.1281C123.085 40.2032 123.077 40.2783 123.077 40.3547C123.077 40.4257 123.072 40.4941 123.061 40.5604C123.051 40.6268 123.033 40.6844 123.005 40.7334C122.978 40.7823 122.941 40.8225 122.894 40.8534C122.847 40.8842 122.787 40.8989 122.714 40.8989C122.657 40.8989 122.605 40.8869 122.559 40.8627C122.512 40.8386 122.472 40.8051 122.437 40.7622C122.403 40.7193 122.376 40.6684 122.358 40.61C122.339 40.5517 122.33 40.4881 122.33 40.4197C122.33 40.285 122.37 40.1596 122.45 40.043C122.53 39.9264 122.637 39.8258 122.772 39.7407C122.907 39.6556 123.064 39.5885 123.244 39.5389C123.425 39.4893 123.614 39.4645 123.813 39.4645C124.055 39.4645 124.259 39.4907 124.426 39.5423C124.593 39.5946 124.728 39.6676 124.83 39.7615C124.933 39.8553 125.007 39.9693 125.053 40.104C125.098 40.2387 125.121 40.3868 125.121 40.549V43.6357L125.124 43.6363ZM124.391 41.2535C124.285 41.2917 124.177 41.3346 124.064 41.3829C123.95 41.4311 123.84 41.4848 123.731 41.5444C123.623 41.6041 123.519 41.6684 123.421 41.7388C123.322 41.8085 123.236 41.8829 123.162 41.9613C123.088 42.0397 123.029 42.1235 122.986 42.2127C122.942 42.3012 122.921 42.3943 122.921 42.4908C122.921 42.5874 122.937 42.6845 122.97 42.7744C123.003 42.8642 123.047 42.9433 123.102 43.0103C123.157 43.0773 123.22 43.131 123.293 43.1698C123.364 43.2094 123.44 43.2288 123.517 43.2288C123.6 43.2288 123.677 43.2167 123.752 43.1926C123.826 43.1685 123.898 43.1363 123.968 43.0954C124.037 43.0545 124.107 43.0069 124.177 42.9527C124.247 42.8984 124.318 42.8401 124.391 42.7797V41.2535Z" fill="#010101"/>
<path d="M127.625 43.442C127.726 43.442 127.818 43.4245 127.903 43.3904C127.987 43.3562 128.06 43.3113 128.121 43.255C128.181 43.1993 128.229 43.1343 128.263 43.0606C128.297 42.9868 128.314 42.9124 128.314 42.836C128.314 42.712 128.286 42.6034 128.231 42.5109C128.174 42.4184 128.101 42.3347 128.008 42.2596C127.916 42.1845 127.81 42.1168 127.691 42.0558C127.572 41.9948 127.452 41.9318 127.33 41.8675C127.208 41.8031 127.087 41.7328 126.969 41.6584C126.85 41.584 126.744 41.4975 126.651 41.3996C126.559 41.3018 126.485 41.1892 126.429 41.0611C126.373 40.9331 126.345 40.7816 126.345 40.606C126.345 40.4411 126.377 40.289 126.44 40.1496C126.503 40.0101 126.589 39.8895 126.7 39.7883C126.81 39.6871 126.943 39.6073 127.097 39.5503C127.251 39.4934 127.42 39.4645 127.603 39.4645C127.724 39.4645 127.838 39.4739 127.945 39.4934C128.052 39.5121 128.157 39.549 128.259 39.604C128.361 39.6582 128.462 39.7353 128.564 39.8345C128.666 39.9337 128.771 40.0631 128.881 40.2226L128.613 40.4887C128.474 40.2354 128.318 40.0457 128.146 39.9217C127.973 39.7977 127.789 39.7353 127.593 39.7353C127.49 39.7353 127.395 39.7501 127.308 39.7789C127.221 39.8084 127.147 39.8473 127.086 39.8969C127.024 39.9465 126.977 40.0041 126.942 40.0698C126.907 40.1355 126.89 40.2059 126.89 40.2789C126.89 40.4009 126.921 40.5075 126.983 40.5986C127.044 40.6898 127.125 40.7722 127.226 40.846C127.326 40.9197 127.44 40.9874 127.568 41.0497C127.696 41.1121 127.828 41.1751 127.963 41.2401C128.097 41.3044 128.229 41.3742 128.357 41.4472C128.485 41.5209 128.599 41.6067 128.699 41.7039C128.8 41.8018 128.881 41.9144 128.942 42.0424C129.004 42.1704 129.035 42.3199 129.035 42.4895C129.035 42.6591 129.006 42.824 128.948 42.9748C128.89 43.1256 128.802 43.2563 128.686 43.3669C128.569 43.4775 128.422 43.564 128.245 43.6276C128.068 43.6906 127.862 43.7228 127.627 43.7228C127.519 43.7228 127.41 43.7134 127.296 43.694C127.183 43.6752 127.069 43.6384 126.954 43.5834C126.838 43.5291 126.723 43.452 126.608 43.3528C126.493 43.2536 126.38 43.1242 126.271 42.9647L126.569 42.6644C126.658 42.8039 126.744 42.9225 126.826 43.0204C126.908 43.1182 126.991 43.198 127.074 43.2603C127.157 43.3227 127.244 43.3682 127.334 43.3971C127.424 43.4265 127.521 43.4406 127.627 43.4406L127.625 43.442Z" fill="#010101"/>
<path d="M132.08 43.1149C131.982 43.3025 131.852 43.4513 131.689 43.5599C131.527 43.6692 131.327 43.7235 131.09 43.7235C130.967 43.7235 130.86 43.7007 130.77 43.6551C130.679 43.6095 130.605 43.5445 130.545 43.4607C130.486 43.3769 130.442 43.2771 130.413 43.1598C130.384 43.0431 130.37 42.9138 130.37 42.7717V39.8902H129.733V39.6884C129.939 39.6884 130.107 39.6468 130.24 39.5644C130.373 39.482 130.481 39.37 130.565 39.2293C130.65 39.0885 130.716 38.9256 130.764 38.74C130.812 38.555 130.854 38.3579 130.89 38.1501H131.099V39.547H131.925V39.8895H131.099V42.771C131.099 42.832 131.11 42.889 131.13 42.9426C131.151 42.9955 131.179 43.0418 131.214 43.0813C131.25 43.1209 131.292 43.1517 131.341 43.1745C131.39 43.1973 131.442 43.2087 131.497 43.2087C131.579 43.2087 131.654 43.1866 131.721 43.1423C131.789 43.0981 131.847 43.0431 131.898 42.9768L132.079 43.1135L132.08 43.1149Z" fill="#010101"/>
<path d="M135.614 38.3344V45.4367H135.279V38.3344H135.614Z" fill="#010101"/>
<path d="M139.399 38.3344H140.91C141.159 38.3344 141.393 38.368 141.611 38.435C141.829 38.502 142.018 38.6005 142.179 38.7299C142.34 38.8593 142.467 39.0181 142.561 39.2058C142.655 39.3935 142.701 39.608 142.701 39.8493C142.701 40.0906 142.656 40.3004 142.566 40.4793C142.475 40.6583 142.357 40.8064 142.21 40.9244C142.062 41.0424 141.895 41.1302 141.707 41.1871C141.518 41.2441 141.327 41.2729 141.133 41.2729C141.05 41.2729 140.964 41.2703 140.873 41.2656C140.782 41.2602 140.693 41.2535 140.609 41.2448C140.524 41.2361 140.446 41.2267 140.374 41.216C140.302 41.2059 140.245 41.1945 140.201 41.1818V43.637H139.399V38.3351V38.3344ZM140.2 40.8842C140.29 40.9123 140.386 40.9385 140.49 40.9639C140.594 40.9894 140.7 41.0021 140.807 41.0021C140.981 41.0021 141.132 40.9733 141.261 40.9163C141.39 40.8594 141.497 40.781 141.583 40.6804C141.668 40.5805 141.732 40.4632 141.774 40.3305C141.816 40.1971 141.837 40.0544 141.837 39.9022C141.837 39.7246 141.809 39.5631 141.753 39.4169C141.698 39.2708 141.621 39.1475 141.526 39.0456C141.43 38.9444 141.316 38.8653 141.186 38.8097C141.056 38.754 140.917 38.7259 140.768 38.7259H140.2V40.8842H140.2Z" fill="#010101"/>
<path d="M145.213 43.7241C144.965 43.7241 144.731 43.6719 144.513 43.568C144.295 43.4641 144.104 43.3227 143.941 43.1437C143.777 42.9647 143.648 42.7556 143.553 42.5156C143.459 42.2757 143.411 42.019 143.411 41.7448C143.411 41.4177 143.455 41.1141 143.541 40.8353C143.628 40.5564 143.75 40.3151 143.908 40.112C144.065 39.9089 144.256 39.7507 144.478 39.6361C144.701 39.5222 144.948 39.4652 145.219 39.4652C145.461 39.4652 145.683 39.5121 145.884 39.606C146.085 39.6998 146.257 39.8265 146.401 39.9847C146.545 40.1435 146.657 40.3265 146.737 40.535C146.817 40.7428 146.857 40.9613 146.857 41.1898H144.113C144.113 41.464 144.145 41.718 144.209 41.9526C144.272 42.1872 144.362 42.3896 144.476 42.5599C144.59 42.7301 144.727 42.8628 144.887 42.9594C145.047 43.0559 145.221 43.1041 145.411 43.1041C145.571 43.1041 145.724 43.0753 145.87 43.0183C146.016 42.9614 146.149 42.8863 146.268 42.7938C146.386 42.7013 146.488 42.5947 146.571 42.4741C146.654 42.3534 146.713 42.2301 146.747 42.1027L146.956 42.2053C146.904 42.4158 146.819 42.6128 146.701 42.7972C146.583 42.9815 146.446 43.1417 146.29 43.2784C146.134 43.4151 145.962 43.5237 145.776 43.6035C145.589 43.6833 145.402 43.7235 145.212 43.7235L145.213 43.7241ZM145.943 40.8614C145.943 40.7066 145.919 40.5625 145.87 40.4291C145.821 40.2957 145.753 40.1804 145.667 40.0825C145.581 39.9847 145.481 39.9083 145.366 39.852C145.25 39.7957 145.126 39.7682 144.994 39.7682C144.884 39.7682 144.779 39.7963 144.677 39.852C144.575 39.9076 144.486 39.984 144.406 40.0805C144.327 40.177 144.262 40.2917 144.211 40.425C144.16 40.5584 144.128 40.7025 144.117 40.8574L145.943 40.8614H145.943Z" fill="#010101"/>
<path d="M147.993 39.5483H148.72V40.3212C148.79 40.2072 148.867 40.0979 148.949 39.9941C149.031 39.8902 149.116 39.799 149.206 39.7199C149.295 39.6415 149.387 39.5792 149.481 39.5336C149.576 39.488 149.672 39.4652 149.771 39.4652C149.85 39.4652 149.925 39.4786 149.993 39.5054C150.062 39.5322 150.122 39.5678 150.173 39.612C150.224 39.6562 150.265 39.7085 150.294 39.7682C150.324 39.8278 150.338 39.8908 150.338 39.9565C150.338 40.0886 150.302 40.1878 150.227 40.2555C150.153 40.3225 150.05 40.356 149.917 40.356C149.834 40.356 149.769 40.3466 149.72 40.3272C149.671 40.3084 149.626 40.2863 149.586 40.2622C149.546 40.238 149.506 40.2166 149.465 40.1972C149.424 40.1784 149.373 40.1683 149.311 40.1683C149.263 40.1683 149.214 40.1844 149.165 40.2159C149.116 40.2474 149.067 40.2917 149.018 40.3493C148.969 40.4063 148.919 40.4733 148.869 40.5511C148.819 40.6281 148.769 40.7126 148.718 40.8044V43.6363H147.992V39.5483H147.993Z" fill="#010101"/>
<path d="M151.889 39.5483V42.456C151.889 42.5579 151.91 42.653 151.952 42.7435C151.995 42.8334 152.052 42.9118 152.125 42.9775C152.198 43.0438 152.284 43.0961 152.382 43.1356C152.48 43.1752 152.585 43.1946 152.697 43.1946C152.77 43.1946 152.848 43.1772 152.93 43.143C153.013 43.1088 153.093 43.0612 153.172 43.0003C153.251 42.9393 153.324 42.8689 153.394 42.7891C153.464 42.7093 153.522 42.6236 153.567 42.5324V39.5483H154.296V43.6363H153.567V42.8716C153.503 42.9882 153.423 43.0988 153.326 43.2027C153.229 43.3066 153.123 43.3977 153.011 43.4748C152.898 43.5519 152.782 43.6129 152.662 43.6578C152.542 43.702 152.428 43.7241 152.321 43.7241C152.161 43.7241 152.011 43.6906 151.869 43.6236C151.727 43.5566 151.604 43.4654 151.499 43.3515C151.393 43.2375 151.311 43.1035 151.251 42.95C151.19 42.7965 151.159 42.6323 151.159 42.4573V39.5497H151.889V39.5483Z" fill="#010101"/>
<path d="M155.854 39.5483L157.156 42.643L158.403 39.5483H158.738L157.08 43.6819H156.823L155.087 39.5483H155.854Z" fill="#010101"/>
<path d="M159.925 37.455C159.982 37.455 160.037 37.4658 160.088 37.4872C160.14 37.5087 160.184 37.5382 160.222 37.575C160.259 37.6119 160.289 37.6548 160.313 37.7044C160.336 37.754 160.347 37.8063 160.347 37.8626C160.347 37.9189 160.336 37.9712 160.313 38.0208C160.29 38.0704 160.26 38.1133 160.222 38.1501C160.184 38.187 160.139 38.2165 160.088 38.2379C160.037 38.2594 159.982 38.2701 159.925 38.2701C159.868 38.2701 159.815 38.2594 159.765 38.2379C159.714 38.2165 159.671 38.187 159.632 38.1501C159.595 38.1133 159.565 38.0704 159.542 38.0208C159.519 37.9712 159.508 37.9189 159.508 37.8626C159.508 37.8063 159.519 37.754 159.542 37.7044C159.565 37.6548 159.595 37.6119 159.632 37.575C159.67 37.5382 159.714 37.5093 159.765 37.4872C159.815 37.4651 159.868 37.455 159.925 37.455ZM159.569 39.6971L160.083 39.4652H160.295V43.637H159.569V39.6978L159.569 39.6971Z" fill="#010101"/>
<path d="M164.246 43.6363H163.513V43.0767C163.426 43.1504 163.341 43.2248 163.257 43.3012C163.174 43.3769 163.084 43.4473 162.986 43.5103C162.889 43.574 162.782 43.6249 162.665 43.6645C162.547 43.704 162.411 43.7235 162.255 43.7235C162.111 43.7235 161.981 43.6973 161.864 43.6457C161.748 43.5934 161.649 43.5217 161.566 43.4306C161.484 43.3394 161.421 43.2315 161.378 43.1068C161.334 42.9821 161.313 42.8481 161.313 42.7033C161.313 42.5284 161.344 42.3702 161.407 42.2294C161.47 42.0887 161.555 41.9627 161.663 41.8507C161.772 41.7395 161.899 41.6403 162.043 41.5538C162.188 41.4673 162.342 41.3902 162.504 41.3219C162.666 41.2535 162.834 41.1925 163.006 41.1389C163.178 41.0853 163.346 41.0363 163.511 40.9901V40.7354C163.511 40.5504 163.495 40.3935 163.462 40.2655C163.429 40.1375 163.381 40.0343 163.32 39.9552C163.258 39.8768 163.183 39.8198 163.095 39.7856C163.007 39.7514 162.908 39.734 162.799 39.734C162.675 39.734 162.575 39.7521 162.497 39.7876C162.419 39.8231 162.358 39.8701 162.314 39.9284C162.269 39.9867 162.239 40.053 162.223 40.1281C162.207 40.2032 162.199 40.2783 162.199 40.3547C162.199 40.4257 162.194 40.4941 162.183 40.5604C162.173 40.6268 162.155 40.6844 162.127 40.7334C162.1 40.7823 162.063 40.8225 162.016 40.8534C161.969 40.8842 161.909 40.8989 161.836 40.8989C161.779 40.8989 161.727 40.8869 161.681 40.8627C161.634 40.8386 161.594 40.8051 161.559 40.7622C161.525 40.7193 161.498 40.6684 161.48 40.61C161.462 40.5517 161.452 40.4881 161.452 40.4197C161.452 40.285 161.492 40.1596 161.572 40.043C161.652 39.9264 161.759 39.8258 161.894 39.7407C162.029 39.6556 162.186 39.5885 162.366 39.5389C162.547 39.4893 162.736 39.4645 162.935 39.4645C163.177 39.4645 163.381 39.4907 163.548 39.5423C163.715 39.5946 163.85 39.6676 163.952 39.7615C164.055 39.8553 164.129 39.9693 164.175 40.104C164.22 40.2387 164.243 40.3868 164.243 40.549V43.6357L164.246 43.6363ZM163.513 41.2535C163.408 41.2917 163.3 41.3346 163.186 41.3829C163.073 41.4311 162.962 41.4848 162.854 41.5444C162.745 41.6041 162.642 41.6684 162.543 41.7388C162.445 41.8085 162.359 41.8829 162.285 41.9613C162.21 42.0397 162.151 42.1235 162.108 42.2127C162.065 42.3012 162.043 42.3943 162.043 42.4908C162.043 42.5874 162.06 42.6845 162.093 42.7744C162.126 42.8642 162.17 42.9433 162.225 43.0103C162.28 43.0773 162.343 43.131 162.415 43.1698C162.487 43.2094 162.562 43.2288 162.64 43.2288C162.722 43.2288 162.8 43.2167 162.875 43.1926C162.949 43.1685 163.021 43.1363 163.09 43.0954C163.16 43.0545 163.23 43.0069 163.299 42.9527C163.369 42.8984 163.44 42.8401 163.513 42.7797V41.2535Z" fill="#010101"/>
<path d="M165.573 39.5483H166.303V40.2943C166.524 40.0175 166.755 39.8104 166.995 39.6723C167.235 39.5342 167.479 39.4645 167.728 39.4645C167.856 39.4645 167.976 39.4967 168.089 39.5617C168.203 39.6267 168.3 39.7145 168.384 39.8265C168.467 39.9384 168.533 40.0691 168.582 40.2206C168.631 40.3714 168.656 40.5323 168.656 40.7019V43.6363H167.922V40.8386C167.922 40.5698 167.867 40.3654 167.758 40.226C167.648 40.0866 167.508 40.0168 167.337 40.0168C167.259 40.0168 167.177 40.0309 167.09 40.0584C167.003 40.0859 166.915 40.1261 166.826 40.1784C166.737 40.2307 166.648 40.2923 166.558 40.3647C166.469 40.4371 166.383 40.5175 166.302 40.6067V43.6363H165.572V39.5483H165.573Z" fill="#010101"/>
<path d="M175.551 38.3344V38.677H173.225V40.5725H174.907V40.915H173.225V43.6363H172.423V38.3344H175.551Z" fill="#010101"/>
<path d="M178.156 43.7241C177.875 43.7241 177.615 43.6698 177.376 43.5606C177.137 43.4513 176.932 43.3032 176.759 43.1155C176.587 42.9278 176.452 42.708 176.355 42.4553C176.258 42.2026 176.21 41.9332 176.21 41.6463C176.21 41.3446 176.258 41.0611 176.355 40.7957C176.452 40.5303 176.587 40.2997 176.759 40.1033C176.932 39.9069 177.137 39.7514 177.376 39.6368C177.615 39.5228 177.875 39.4659 178.156 39.4659C178.436 39.4659 178.695 39.5181 178.932 39.622C179.168 39.7259 179.373 39.8687 179.546 40.0503C179.72 40.232 179.855 40.4451 179.953 40.6898C180.05 40.9344 180.098 41.1965 180.098 41.476C180.098 41.7857 180.05 42.0766 179.953 42.3494C179.855 42.6222 179.72 42.8608 179.546 43.0652C179.373 43.2697 179.168 43.4306 178.932 43.5485C178.695 43.6665 178.436 43.7255 178.156 43.7255V43.7241ZM178.293 43.4232C178.437 43.4232 178.568 43.3816 178.688 43.2992C178.808 43.2167 178.912 43.1061 179 42.9681C179.088 42.83 179.156 42.6678 179.204 42.4828C179.252 42.2978 179.276 42.1021 179.276 41.897C179.276 41.6 179.253 41.3225 179.207 41.0651C179.162 40.8078 179.087 40.5825 178.985 40.3895C178.882 40.1965 178.748 40.045 178.584 39.9344C178.42 39.8238 178.217 39.7688 177.977 39.7688C177.854 39.7688 177.735 39.8084 177.621 39.8868C177.507 39.9652 177.406 40.0731 177.318 40.2105C177.231 40.3473 177.16 40.5075 177.108 40.6898C177.056 40.8721 177.029 41.0665 177.029 41.2723C177.029 41.5692 177.058 41.848 177.115 42.1094C177.172 42.3708 177.254 42.5987 177.361 42.7924C177.468 42.9868 177.601 43.1403 177.759 43.2529C177.916 43.3662 178.095 43.4225 178.293 43.4225V43.4232Z" fill="#010101"/>
<path d="M182.943 43.7241C182.662 43.7241 182.402 43.6698 182.163 43.5606C181.924 43.4513 181.719 43.3032 181.546 43.1155C181.374 42.9278 181.239 42.708 181.142 42.4553C181.045 42.2026 180.997 41.9332 180.997 41.6463C180.997 41.3446 181.045 41.0611 181.142 40.7957C181.239 40.5303 181.374 40.2997 181.546 40.1033C181.719 39.9069 181.924 39.7514 182.163 39.6368C182.402 39.5228 182.662 39.4659 182.943 39.4659C183.223 39.4659 183.482 39.5181 183.719 39.622C183.955 39.7259 184.16 39.8687 184.333 40.0503C184.507 40.232 184.642 40.4451 184.74 40.6898C184.837 40.9344 184.885 41.1965 184.885 41.476C184.885 41.7857 184.837 42.0766 184.74 42.3494C184.642 42.6222 184.507 42.8608 184.333 43.0652C184.16 43.2697 183.955 43.4306 183.719 43.5485C183.482 43.6665 183.223 43.7255 182.943 43.7255V43.7241ZM183.08 43.4232C183.224 43.4232 183.356 43.3816 183.476 43.2992C183.595 43.2167 183.699 43.1061 183.787 42.9681C183.875 42.83 183.943 42.6678 183.991 42.4828C184.039 42.2978 184.063 42.1021 184.063 41.897C184.063 41.6 184.04 41.3225 183.994 41.0651C183.949 40.8078 183.874 40.5825 183.772 40.3895C183.669 40.1965 183.535 40.045 183.371 39.9344C183.207 39.8238 183.004 39.7688 182.764 39.7688C182.641 39.7688 182.522 39.8084 182.408 39.8868C182.294 39.9652 182.193 40.0731 182.105 40.2105C182.018 40.3473 181.947 40.5075 181.895 40.6898C181.843 40.8728 181.816 41.0665 181.816 41.2723C181.816 41.5692 181.845 41.848 181.902 42.1094C181.959 42.3708 182.041 42.5987 182.148 42.7924C182.256 42.9868 182.388 43.1403 182.546 43.2529C182.703 43.3662 182.882 43.4225 183.08 43.4225V43.4232Z" fill="#010101"/>
<path d="M188.541 43.2368C188.457 43.3133 188.366 43.381 188.267 43.4406C188.169 43.5003 188.067 43.5512 187.961 43.5928C187.855 43.6343 187.747 43.6672 187.639 43.69C187.531 43.7127 187.425 43.7241 187.322 43.7241C187.105 43.7241 186.903 43.6685 186.714 43.5566C186.526 43.4446 186.362 43.2938 186.221 43.1035C186.081 42.9131 185.97 42.6926 185.889 42.4412C185.807 42.1899 185.767 41.9251 185.767 41.6456C185.767 41.4606 185.791 41.2776 185.838 41.0973C185.884 40.917 185.95 40.7468 186.033 40.5852C186.116 40.4244 186.216 40.2749 186.334 40.1382C186.452 40.0014 186.582 39.8828 186.726 39.7822C186.87 39.6817 187.024 39.6039 187.187 39.5483C187.35 39.4927 187.521 39.4645 187.699 39.4645C187.877 39.4645 188.033 39.4994 188.168 39.5691C188.303 39.6388 188.428 39.7306 188.541 39.8452V37.687L189.052 37.455H189.267V43.7235H188.541V43.2362L188.541 43.2368ZM188.541 40.8466C188.541 40.6871 188.515 40.5403 188.461 40.4069C188.407 40.2736 188.337 40.1603 188.251 40.0664C188.163 39.9726 188.066 39.8995 187.956 39.8479C187.846 39.7956 187.735 39.7695 187.623 39.7695C187.477 39.7695 187.34 39.8104 187.214 39.8915C187.087 39.9726 186.976 40.0859 186.881 40.23C186.787 40.3748 186.712 40.5477 186.657 40.7494C186.602 40.9512 186.574 41.1724 186.574 41.4137C186.574 41.6724 186.604 41.9157 186.665 42.1423C186.726 42.3695 186.809 42.5672 186.913 42.7361C187.019 42.9051 187.141 43.0378 187.281 43.1356C187.421 43.2335 187.572 43.2824 187.732 43.2824C187.81 43.2824 187.887 43.271 187.963 43.2482C188.039 43.2255 188.113 43.1946 188.182 43.1571C188.252 43.1189 188.318 43.0746 188.379 43.0237C188.441 42.9728 188.495 42.9198 188.54 42.8635V40.846L188.541 40.8466Z" fill="#010101"/>
<path d="M74.0662 16.6865L81.4419 34.4884H78.7662L76.3713 28.6798H69.6591L67.1858 34.4884H65.8701L73.414 16.6865H74.0662ZM70.1196 27.555H75.8873L73.0427 20.672L70.1196 27.555Z" fill="#010101"/>
<path d="M84.2458 17.0867L90.1482 30.9279L95.6458 17.0867H96.8939L89.7769 34.9006H89.1026L81.4688 17.0867H84.2458Z" fill="#010101"/>
<path d="M109.779 17.0867V18.2107H101.527V24.4322H107.047V25.5563H101.527V33.3643H109.779V34.4884H98.896V17.0867H109.779Z" fill="#010101"/>
<path d="M112.702 17.0867H114.175L124.44 29.8038H124.541V17.0867H125.7V34.9006H125.092L113.973 20.7464H113.883V34.4884H112.703V17.0867H112.702Z" fill="#010101"/>
<path d="M142.092 17.0867V18.2107H136.425V34.4884H133.795V18.2107H128.117V17.0867H142.092Z" fill="#010101"/>
<path d="M144.229 17.0867H146.86V28.3795C146.86 29.1208 146.974 29.8186 147.203 30.4721C147.431 31.1263 147.759 31.6987 148.187 32.19C148.614 32.6813 149.127 33.0687 149.727 33.3516C150.327 33.6351 150.998 33.7765 151.74 33.7765C152.482 33.7765 153.164 33.6351 153.764 33.3516C154.363 33.0687 154.873 32.6813 155.292 32.19C155.712 31.6987 156.034 31.1263 156.26 30.4721C156.484 29.8186 156.597 29.1208 156.597 28.3795V17.0867H157.755V28.3795C157.755 29.2709 157.626 30.1095 157.367 30.897C157.108 31.6839 156.701 32.3757 156.147 32.9709C155.592 33.5667 154.882 34.0373 154.016 34.3825C153.151 34.7283 152.111 34.9013 150.896 34.9013C149.817 34.9013 148.861 34.7283 148.029 34.3825C147.197 34.0373 146.5 33.5641 145.938 32.9648C145.376 32.3649 144.951 31.6658 144.662 30.8662C144.373 30.0666 144.229 29.2173 144.229 28.3178V17.0873V17.0867Z" fill="#010101"/>
<path d="M161.408 17.0867H166.827C167.772 17.0867 168.598 17.1993 169.307 17.4238C170.015 17.6483 170.606 17.9634 171.077 18.3669C171.55 18.7711 171.905 19.2496 172.146 19.8033C172.386 20.3569 172.506 20.9629 172.506 21.6211C172.506 22.1627 172.414 22.6687 172.23 23.1386C172.047 23.6091 171.787 24.0341 171.449 24.4128C171.112 24.7915 170.707 25.1206 170.234 25.3994C169.762 25.6783 169.241 25.8927 168.671 26.0429L174.371 34.4877H171.324L165.882 26.305H164.038V34.4877H161.407V17.0867H161.408ZM164.039 25.4316H165.557C166.149 25.4316 166.694 25.3445 167.193 25.1695C167.692 24.9946 168.124 24.7472 168.492 24.4262C168.859 24.1058 169.145 23.7164 169.351 23.2586C169.557 22.8008 169.66 22.2887 169.66 21.7223C169.66 21.2062 169.578 20.7289 169.413 20.2919C169.248 19.8549 169.02 19.4802 168.727 19.1679C168.435 18.8555 168.087 18.6122 167.682 18.4373C167.277 18.2623 166.835 18.1752 166.355 18.1752H164.04V25.4329L164.039 25.4316Z" fill="#010101"/>
<path d="M182.624 16.6865L190 34.4884H187.324L184.929 28.6798H178.217L175.744 34.4884H174.428L181.972 16.6865H182.624ZM178.678 27.555H184.445L181.601 20.672L178.678 27.555Z" fill="#010101"/>
<mask id="mask0_3_355" style="mask-type:luminance" maskUnits="userSpaceOnUse" x="0" y="0" width="57" height="47">
<path d="M56.3234 0.5H0V46.489H56.3234V0.5Z" fill="white"/>
</mask>
<g mask="url(#mask0_3_355)">
<path d="M73.1513 43.944C73.1513 43.944 59.2048 35.774 48.5796 24.2104C42.5236 17.6189 30.9292 1.72192 30.9292 1.72192C29.407 0.199719 26.9163 0.199719 25.3947 1.72192C25.3947 1.72192 13.3995 17.273 7.74433 24.2104C1.33313 32.0741 -16.828 43.944 -16.828 43.944C-18.3502 45.4662 -18.3502 47.9569 -16.828 49.4791L25.3941 91.7012C26.9163 93.2234 29.407 93.2234 30.9285 91.7012L73.1506 49.4791C74.6728 47.9569 74.6728 45.4662 73.1506 43.944H73.1513Z" fill="#E03D41"/>
<path d="M69.2483 46.914C69.2483 46.914 56.4554 39.1951 47.2491 29.2126C41.7623 23.2881 30.9333 8.59895 30.9333 8.59895C29.4091 7.07474 26.915 7.07474 25.3907 8.59895C25.3907 8.59895 14.228 22.9992 9.07487 29.2126C3.3802 36.1111 -12.9243 46.914 -12.9243 46.914C-14.4485 48.4382 -14.4485 50.9323 -12.9243 52.4565L25.3907 90.7715C26.915 92.2957 29.4091 92.2957 30.9333 90.7715L69.2483 52.4565C70.7725 50.9323 70.7725 48.4382 69.2483 46.914Z" fill="#FFF2A4"/>
<path d="M65.3453 49.8847C65.3453 49.8847 53.7247 42.5987 45.918 34.2156C41.0116 28.9466 30.9367 15.4767 30.9367 15.4767C29.4104 13.9504 26.913 13.9504 25.3868 15.4767C25.3868 15.4767 15.0437 28.7153 10.4054 34.2156C5.41251 40.1375 -9.0219 49.8847 -9.0219 49.8847C-10.5481 51.4109 -10.5481 53.9083 -9.0219 55.4352L25.3868 89.8439C26.913 91.3701 29.4104 91.3701 30.9367 89.8439L65.3453 55.4352C66.8715 53.909 66.8715 51.4115 65.3453 49.8847Z" fill="#FDC61F"/>
<path d="M61.4422 52.8546C61.4422 52.8546 50.9805 46.0145 44.5874 39.2179C40.2541 34.6111 30.9406 22.353 30.9406 22.353C29.4124 20.8248 26.9109 20.8248 25.3827 22.353C25.3827 22.353 15.8674 34.4368 11.7358 39.2179C7.45476 44.1712 -5.11896 52.8546 -5.11896 52.8546C-6.64719 54.3829 -6.64719 56.8843 -5.11896 58.4126L25.3827 88.9142C26.9109 90.4424 29.4124 90.4424 30.9406 88.9142L61.4422 58.4126C62.9704 56.8843 62.9704 54.3829 61.4422 52.8546Z" fill="#70C6D1"/>
<path d="M57.5392 55.8253C57.5392 55.8253 48.2324 49.4349 43.257 44.2208C39.4947 40.2776 30.9446 29.2307 30.9446 29.2307C29.4144 27.7005 26.9096 27.7005 25.3793 29.2307C25.3793 29.2307 16.6952 40.1623 13.067 44.2208C9.50182 48.2083 -1.21523 55.8253 -1.21523 55.8253C-2.74548 57.3556 -2.74548 59.8604 -1.21523 61.3906L25.3793 87.9852C26.9096 89.5154 29.4144 89.5154 30.9446 87.9852L57.5392 61.3906C59.0695 59.8604 59.0695 57.3556 57.5392 55.8253Z" fill="#D71539"/>
<path d="M53.6362 58.7953C53.6362 58.7953 45.477 52.8613 41.9258 49.2231C38.73 45.9481 30.948 36.1078 30.948 36.1078C29.4151 34.5749 26.9076 34.5749 25.3747 36.1078C25.3747 36.1078 17.5271 45.8918 14.3969 49.2231C11.5529 52.2494 2.6865 58.7953 2.6865 58.7953C1.15357 60.3282 1.15357 62.8357 2.6865 64.3687L25.374 87.0562C26.9069 88.5891 29.4145 88.5891 30.9474 87.0562L53.6349 64.3687C55.1678 62.8357 55.1678 60.3282 53.6349 58.7953H53.6362Z" fill="#D53D8E"/>
<path d="M49.7331 61.7653C49.7331 61.7653 42.7093 56.2992 40.5953 54.2254C37.9524 51.6327 30.952 42.9848 30.952 42.9848C29.417 41.4499 26.9055 41.4499 25.3713 42.9848C25.3713 42.9848 18.3716 51.6327 15.728 54.2254C13.6139 56.2992 6.5901 61.7653 6.5901 61.7653C5.05517 63.3003 5.05517 65.8118 6.5901 67.346L25.3706 86.1265C26.9055 87.6615 29.417 87.6615 30.9513 86.1265L49.7318 67.346C51.2667 65.8111 51.2667 63.2996 49.7318 61.7653H49.7331Z" fill="#A168A8"/>
</g>
</svg>
