<svg width="65" height="65" viewBox="0 0 65 65" fill="none" xmlns="http://www.w3.org/2000/svg">
<mask id="path-1-inside-1_17_743" fill="white">
<path d="M0 32.5C0 14.5507 14.5507 0 32.5 0C50.4493 0 65 14.5507 65 32.5C65 50.4493 50.4493 65 32.5 65C14.5507 65 0 50.4493 0 32.5Z"/>
</mask>
<path d="M0 32.5C0 14.5507 14.5507 0 32.5 0C50.4493 0 65 14.5507 65 32.5C65 50.4493 50.4493 65 32.5 65C14.5507 65 0 50.4493 0 32.5Z" fill="#2ACD42"/>
<path d="M-1 32C-1 13.7746 13.7746 -1 32 -1C50.2254 -1 65 13.7746 65 32V32.5C65 15.103 50.4493 1 32.5 1C15.103 1 1 15.103 1 32.5L-1 32ZM65 33C65 51.2254 50.2254 66 32 66C13.7746 66 -1 51.2254 -1 33L1 32.5C1 49.897 15.103 64 32.5 64C50.4493 64 65 49.897 65 32.5V33ZM32 66C13.7746 66 -1 51.2254 -1 33V32C-1 13.7746 13.7746 -1 32 -1L32.5 1C15.103 1 1 15.103 1 32.5C1 49.897 15.103 64 32.5 64L32 66ZM65 0V65V0Z" fill="#2ACD42" mask="url(#path-1-inside-1_17_743)"/>
<path d="M48.1287 16.6721C43.9551 12.4885 38.3969 10.1875 32.49 10.1875C20.2979 10.1875 10.3768 20.1086 10.3768 32.3008C10.3768 36.1955 11.3928 40.0006 13.3252 43.3574L10.1875 54.8125L21.9115 51.7346C25.1389 53.4977 28.7746 54.424 32.4801 54.424H32.49C44.6723 54.424 54.8125 44.5029 54.8125 32.3107C54.8125 26.4039 52.3023 20.8557 48.1287 16.6721ZM32.49 50.6986C29.183 50.6986 25.9457 49.8121 23.1268 48.1387L22.4594 47.7402L15.5066 49.5631L17.3594 42.7797L16.9211 42.0824C15.0783 39.1539 14.1121 35.7771 14.1121 32.3008C14.1121 22.1705 22.3598 13.9229 32.5 13.9229C37.4107 13.9229 42.0227 15.8354 45.4891 19.3117C48.9555 22.7881 51.0871 27.4 51.0771 32.3107C51.0771 42.451 42.6203 50.6986 32.49 50.6986ZM42.5705 36.9326C42.0227 36.6537 39.3033 35.3189 38.7953 35.1396C38.2873 34.9504 37.9188 34.8607 37.5502 35.4186C37.1816 35.9764 36.1258 37.2115 35.7971 37.59C35.4783 37.9586 35.1496 38.0084 34.6018 37.7295C31.3545 36.1059 29.2229 34.8309 27.0813 31.1553C26.5135 30.1791 27.649 30.2488 28.7049 28.1371C28.8842 27.7686 28.7945 27.4498 28.6551 27.1709C28.5156 26.892 27.41 24.1727 26.9518 23.067C26.5035 21.9912 26.0453 22.1406 25.7066 22.1207C25.3879 22.1008 25.0193 22.1008 24.6508 22.1008C24.2822 22.1008 23.6846 22.2402 23.1766 22.7881C22.6686 23.3459 21.2441 24.6807 21.2441 27.4C21.2441 30.1193 23.2264 32.749 23.4953 33.1176C23.7742 33.4861 27.39 39.0643 32.9383 41.4648C36.4445 42.9789 37.8191 43.1084 39.5723 42.8494C40.6381 42.69 42.8395 41.5146 43.2977 40.2197C43.7559 38.9248 43.7559 37.8191 43.6164 37.59C43.4869 37.341 43.1184 37.2016 42.5705 36.9326Z" fill="white"/>
</svg>
